<?xml version="1.0" standalone="no"?>
<!DOCTYPE svg PUBLIC "-//W3C//DTD SVG 1.1//EN" "http://www.w3.org/Graphics/SVG/1.1/DTD/svg11.dtd" >
<svg xmlns="http://www.w3.org/2000/svg">
<metadata>
This is a custom SVG webfont generated by Font Squirrel.
Copyright   : Copyright c 2011 TypeSETit LLC typesetitattnet with Reserved Font Name Bilbo
Designer    : Robert E Leuschke
Foundry     : TypeSETit LLC
</metadata>
<defs>
<font id="BilboRegular" horiz-adv-x="673" >
<font-face units-per-em="2048" ascent="1638" descent="-410" />
<missing-glyph horiz-adv-x="409" />
<glyph unicode=" "  horiz-adv-x="409" />
<glyph unicode="&#x09;" horiz-adv-x="409" />
<glyph unicode="&#xa0;" horiz-adv-x="409" />
<glyph unicode="!" horiz-adv-x="413" d="M156 49q0 39 45 73t78 34q10 0 14 -4l2 -5q-4 -16 -9 -41.5t-7.5 -36t-6.5 -27.5t-6 -23.5t-7 -16.5t-9 -13t-12.5 -9.5t-16.5 -9.5t-20 -5q-45 0 -45 84zM311 406q0 59 49.5 189t126 299t84.5 189q6 18 35 73.5t51.5 104t22.5 56.5q0 2 -8 3t-17.5 6t-11.5 15 q2 14 34 23.5t68 9.5q63 0 64 -28q0 -7 -4 -15q-45 -55 -225.5 -422.5t-180.5 -453.5q0 -10 7.5 -21.5t7.5 -17.5q0 -18 -27 -33.5t-51.5 -15.5t-24.5 39z" />
<glyph unicode="&#x22;" horiz-adv-x="831" d="M182 821h2q68 68 137.5 162t69.5 141q0 16 -8 25l-2 2q-18 18 -19 45q0 39 33 66l2 2v-2q51 47 88 47q21 -1 29 -17q14 -45 14 -67q0 -14 -9 -29.5t-11 -21.5l2 -3q-49 -152 -158.5 -256t-158.5 -104q-10 0 -11 10zM451 836v2l2 2q66 66 135 160t69 141q0 16 -8 24v2 q-18 18 -18 45q0 41 31 66l4 2q51 45 86 45q20 0 28 -16q14 -45 15 -68q0 -14 -8.5 -28.5t-10.5 -22.5v-2q-49 -152 -158.5 -256.5t-158.5 -104.5q-8 0 -8 9z" />
<glyph unicode="#" horiz-adv-x="1376" d="M-14 410q0 14 21.5 24t42.5 12l22 3h288q29 74 111 303l-172 -2q-162 -4 -162 43q0 14 21.5 23t43.5 11l21 2q182 0 275 -2q8 23 24.5 69t28.5 82t26.5 72.5t25.5 57t20 20.5q14 0 14 -38q0 -106 -27 -179l-32 -86q55 0 165.5 -1t167.5 -1q111 297 142 303q16 0 16 -36 q0 -98 -31 -179l-32 -86q49 0 150 3t151 3q39 0 45 -8q2 -2 2 -6q0 -18 -82 -40.5t-129 -22.5h-166q-109 -291 -113 -303h250q88 0 88 -19q0 -20 -80 -39.5t-131 -19.5l-157 -2q-10 -31 -25.5 -72t-25 -66.5t-20.5 -55.5t-20.5 -47t-18.5 -33.5t-19.5 -23.5t-20.5 -7 q-23 0 -22 36q0 39 13 84t39.5 106.5t33.5 78.5l-342 -2q-14 -39 -36 -97.5t-33 -87t-25.5 -60.5t-28 -45t-27.5 -13q-23 0 -23 34q0 37 16.5 83t44.5 104.5t36 81.5h-183q-162 0 -161 41zM436 449h340q57 168 107 305l-334 -2q-109 -291 -113 -303z" />
<glyph unicode="$" horiz-adv-x="1171" d="M84 80v24q0 15 14.5 38.5t42.5 23.5q4 0 5 -10.5t4.5 -27.5t7.5 -28q33 -68 153 -67q55 186 166 477q-59 23 -91 37t-74 40.5t-60.5 63.5t-18.5 84q0 123 134.5 218.5t314.5 115.5q59 154 79.5 195t43.5 41q2 0 6 -1l4 -1q10 -10 10 -23q0 -14 -12 -47t-35.5 -86 t-32.5 -74h19q150 0 149 -137q0 -10 -3 -29.5t-17 -44t-37 -24.5q-10 0 -10 10q0 4 4 25.5t4 35.5q0 100 -133 105q-106 -274 -172 -455q157 -60 199 -96q51 -43 51 -103q0 -117 -132 -229.5t-311 -138.5q-57 -199 -57 -260q0 -16 4 -28.5t8 -19t9.5 -10.5t9.5 -6l4 -2 q0 -12 -5 -21.5t-12.5 -14.5t-15.5 -8t-12 -4l-4 -1q-39 0 -39 96q0 92 51 273q-18 -2 -57 -2q-156 2 -156 96zM313 768q0 -70 50.5 -113t138.5 -77q0 2 10 26l150 408q-121 -10 -235 -78t-114 -166zM369 35q106 10 203 72.5t124 146.5q10 29 11 63q0 63 -47.5 102.5 t-135.5 72.5q-100 -276 -155 -457z" />
<glyph unicode="%" horiz-adv-x="1220" d="M166 772q0 104 152.5 292.5t244.5 188.5q90 0 90 -96q0 -18 -8 -59q4 -4 17 -4q70 0 182 34.5t198 68.5t91 34q18 0 32 -14q8 -8 9 -19q0 -16 -17 -33q-268 -311 -587.5 -751.5t-319.5 -538.5q0 -14 6 -24.5t11 -16.5t5 -8q0 -10 -16 -18.5t-25 -8.5q-31 0 -30 49 q0 72 39 172q45 121 343 531t472 606q-86 -41 -215 -79t-205 -40l1 -4q1 -4 1 -6q0 -72 -130 -224.5t-222 -152.5h-27q-45 0 -68.5 42t-23.5 79zM248 760q0 -57 41 -58q74 0 189.5 135.5t115.5 196.5q-14 8 -31.5 27.5t-27.5 36.5l-11 16q-59 0 -167.5 -139t-108.5 -215z M514 -23q0 104 152.5 293t244.5 189q90 0 90 -94q0 -20 -8 -62q3 -4 17 -6q12 -2 12 -14q0 -23 -39 -37l1 -4q1 -4 1 -6q0 -72 -130 -225.5t-222 -153.5h-27q-45 0 -68.5 42t-23.5 78zM596 -35q0 -55 41 -55q74 0 189.5 135.5t115.5 194.5q-14 8 -31.5 27.5t-27.5 35.5 l-11 16q-59 0 -167.5 -139t-108.5 -215z" />
<glyph unicode="&#x26;" horiz-adv-x="1765" d="M86 195q0 117 108.5 232.5t303.5 180.5q-265 23 -265 185q0 121 88.5 221t223.5 159.5t283.5 91t283.5 31.5q160 0 259 -48t99 -136q0 -94 -82.5 -171t-182 -111.5t-175.5 -34.5q-18 0 -18 12q0 18 26 18q94 0 198.5 85t104.5 182q0 80 -70.5 121.5t-193.5 41.5 q-106 0 -230 -29.5t-242 -84t-195.5 -146.5t-77.5 -202q0 -63 70.5 -93t168.5 -30q45 0 112 14t79 14q37 0 37 -24q0 -20 -34 -39t-99 -25q-213 -57 -331 -169.5t-118 -229.5q0 -96 87 -159.5t249 -63.5q293 0 465 130t172 279q0 74 -49 121t-140 47q-84 0 -139 -28.5 t-55 -85.5q0 -10 6 -34t6 -36q0 -14 -14 -14q-16 0 -35.5 21.5t-19.5 51.5q0 98 93 146.5t210 48.5q94 0 266 -48t260 -48q23 0 49.5 8t30.5 8q14 0 14 -10q0 -29 -40 -44.5t-97 -15.5q-63 0 -122.5 8.5t-93.5 18.5t-80 24.5t-60 18.5q43 -20 73.5 -66.5t30.5 -101.5 q0 -115 -127 -221.5t-311 -167.5t-361 -61q-195 0 -297 72.5t-102 185.5z" />
<glyph unicode="'" horiz-adv-x="428" d="M281 682v4q68 68 137 162t69 141q0 14 -8 23l-2 2q-18 18 -18 45q0 39 33 65l4 2q51 45 86 45q20 0 28 -16q16 -33 17 -65q0 -35 -21 -56q-49 -152 -158.5 -256t-158.5 -104q-8 0 -8 8z" />
<glyph unicode="(" horiz-adv-x="548" d="M-37 307q0 193 62 400q35 117 110.5 233.5t183 219t257 166t313.5 63.5h2q27 -6 27 -25q0 -20 -31 -46t-53 -26q-135 -2 -260 -59t-216.5 -148.5t-156 -190.5t-97.5 -200q-78 -229 -77 -444q0 -295 153 -332q49 -2 49 -29q0 -23 -32 -22q-111 0 -172.5 126t-61.5 314z " />
<glyph unicode=")" horiz-adv-x="813" d="M-63 -92q0 27 30.5 62.5t59.5 35.5q162 0 338 201t309 475h2q94 197 94 365q0 276 -285 276h-16q-10 0 -27.5 14.5t-17.5 26.5q0 16 63 16q182 0 262 -98t80 -258q1 -176 -79 -373q-137 -328 -360.5 -547t-436.5 -219h-2q-14 6 -14 23z" />
<glyph unicode="*" horiz-adv-x="415" d="M43 1149q0 47 123 76q-123 47 -123 86q0 29 33 28q49 0 108 -73q-12 45 -12 84q0 59 39 61q37 -6 37 -59q0 -27 -15 -84q76 76 109 75q12 0 20 -8q10 -10 11 -20q0 -41 -123 -88q121 -37 121 -82q0 -31 -33 -31q-39 0 -102 68q16 -72 16 -90q0 -51 -39 -52q-43 0 -43 58 q0 31 14 84q-66 -66 -106 -66q-35 0 -35 33z" />
<glyph unicode="+" horiz-adv-x="776" d="M118 318q-1 1 0 4.5t1 5.5q0 16 17.5 30.5t41.5 16.5l203 -4q2 8 18.5 61t25.5 79t25.5 64.5t34 57t35.5 18.5q12 0 17 -12q0 -70 -78 -270q4 0 70.5 2t109.5 2q72 0 90 -6q16 -10 16 -17q0 -14 -50 -19t-132 -9.5t-123 -10.5q-31 -119 -110 -286q-27 -51 -35 -52 q-10 0 -10 31q0 43 8 55q78 240 72 256q0 -4 -191 -4q-16 0 -27.5 1t-17.5 1t-8 2z" />
<glyph unicode="," horiz-adv-x="413" d="M2 -336q68 72 137.5 164t69.5 139q0 16 -8 25h-2q-18 22 -19 49q0 37 33 63l4 2q51 45 86 46q21 -1 29 -17q14 -45 14 -67q0 -14 -9 -29.5t-11 -22.5q-49 -154 -158 -258t-158 -104q-8 0 -8 6v4z" />
<glyph unicode="-" horiz-adv-x="591" d="M47 274q0 18 10.5 33t25.5 23t30.5 14t24.5 8l9 2q14 0 15 -10q0 -12 -10 -22q106 -8 172 -9q40 0 65 2q74 2 105 4q37 0 36 -12q0 -20 -139 -39.5t-254 -19.5q-8 0 -21.5 1t-19.5 1q-2 0 -8 -1t-10 -1q-31 0 -31 26z" />
<glyph unicode="." horiz-adv-x="505" d="M231 53q0 35 48.5 70t74.5 35q4 0 8 -4l-6 -30q-12 -64 -19 -90t-24.5 -43.5t-46.5 -17.5q-35 0 -35 80z" />
<glyph unicode="/" horiz-adv-x="1236" d="M41 -188q0 123 167 400t371.5 542.5t379 470.5t190.5 205q25 -1 39 -17q10 -16 10 -22q0 -18 -18 -39q-309 -354 -690 -877.5t-381 -638.5q0 -23 14 -41l14 -18q0 -10 -18.5 -20.5t-28.5 -10.5q-49 0 -49 66z" />
<glyph unicode="0" horiz-adv-x="651" d="M68 133q0 74 24.5 178.5t68.5 213t118.5 183t162.5 74.5q143 0 144 -209q0 -217 -112 -415.5t-269 -198.5q-137 0 -137 174zM164 154q0 -129 65 -129q84 0 152.5 107.5t107.5 252.5q31 92 31 190q0 121 -74 121q-98 0 -190 -192.5t-92 -349.5z" />
<glyph unicode="1" horiz-adv-x="563" d="M82 477q-4 18 12 25q106 55 273 221q4 6 12 18.5t10 14.5q12 33 68 37q10 2 32 2q39 0 23 -37q-150 -281 -213 -496q-6 -23 -20.5 -55.5t-18.5 -48.5q8 -2 10 -13.5t0 -27t-5 -30.5t-7 -31.5t-4 -24.5q-4 -20 -27.5 -41t-48.5 -21q-39 0 -39 37q0 18 8 43q31 90 62 176 t46 130t28.5 82t18.5 57.5t5 31.5q0 8 -3 15.5t-3 11.5q0 8 6 27q-98 -70 -196 -117q-4 -2 -11 -2q-14 0 -18 16z" />
<glyph unicode="2" horiz-adv-x="839" d="M32 -3q-5 19 1 40q6 37 145 88q186 88 347 231.5t167 276.5q2 35 -25.5 56.5t-82.5 21.5q-80 0 -200 -44t-200 -96q-4 -4 -12 -4q-14 0 -10 19q0 45 35 63q10 4 44.5 31t66.5 49.5t38 22.5q12 0 8 -15q0 -10 -24 -35q197 78 325 78q156 0 148 -123q-4 -96 -116 -215.5 t-201 -181t-244 -160.5q-19 -12 -29 -18q63 20 183 38.5t212 18.5q174 0 174 -71q0 -41 -26.5 -90.5t-42.5 -49.5q-4 0 -6 4.5t-2 8.5v4q27 35 26 67q0 61 -108 62q-100 0 -273 -27q-231 -39 -301 -65q-12 -4 -17 15z" />
<glyph unicode="3" horiz-adv-x="1003" d="M-6 -156q0 117 100.5 188.5t229.5 71.5q23 0 22 -18q0 -12 -22 -12q-88 0 -165 -62.5t-77 -156.5q0 -88 57.5 -133.5t157.5 -45.5q211 0 371.5 129t160.5 314q0 207 -243 207q-45 0 -119 -16.5t-90 -16.5q-33 0 -33 31q0 18 14.5 34.5t36.5 16.5q70 0 144.5 13t150.5 41 t125 80t49 120q0 35 -28.5 56.5t-83.5 21.5q-80 0 -198 -44.5t-194 -95.5q-4 -4 -12 -4q-12 0 -12 19q0 47 33 63q10 4 43.5 30.5t63.5 49.5t36 23q10 0 10 -15q0 -6 -22 -35q193 78 321 78q154 0 154 -123q0 -88 -103.5 -173t-207.5 -105q279 -2 278 -228 q0 -205 -201.5 -360.5t-466.5 -155.5q-281 0 -280 213z" />
<glyph unicode="4" horiz-adv-x="905" d="M9 -1q-7 43 14 60q68 35 385 308.5t399 355.5q4 6 12 18.5t10 14.5q12 33 68 37q10 2 33 2q38 0 22 -37q-88 -164 -223 -520q-8 -18 -37 -99h33q174 0 174 -71q0 -41 -26.5 -90.5t-43.5 -49.5q-4 0 -6 4.5t-2 8.5v4q27 35 27 67q0 61 -109 62q-10 0 -33.5 -1t-35.5 -1 q-78 -231 -80 -244q8 -2 10 -13.5t0 -26.5t-5 -30.5t-7 -32t-4 -24.5q-4 -20 -28 -40.5t-48 -20.5q-39 0 -39 36q0 18 8 43l121 349q-240 -18 -467 -54q-45 -8 -104 -32q-13 -4 -18 17zM139 92q13 0 19 2q193 27 465 41l141 402q22 62 -9 47q-3 -2 -7 -4q-18 -14 -260 -211 t-349 -277z" />
<glyph unicode="5" horiz-adv-x="1003" d="M98 -216q-59 110 29 218.5t250 108.5q20 0 20 -19q0 -10 -20 -10q-72 0 -127 -38t-74.5 -91t-12.5 -106.5t62.5 -91.5t147.5 -38q197 0 326.5 108.5t129.5 293.5q0 94 -58 156.5t-187 62.5q-109 0 -207 -45q-14 -6 -23.5 5t-9.5 26q0 16 27 26q20 43 59 150.5t49 130.5 q-16 6 0 63q4 31 119 51q160 33 344 33q174 0 174 -71q0 -41 -26.5 -90.5t-42.5 -49.5q-4 0 -6.5 4t-2.5 9v4q27 35 27 67q0 53 -125 54q-193 0 -346 -35q-70 -125 -143 -312q45 27 118 27q174 0 273.5 -50t99.5 -188q0 -203 -171 -338t-419 -135q-195 0 -254 110z" />
<glyph unicode="6" horiz-adv-x="1153" d="M109 201q4 109 70.5 232.5t159.5 228t220 214t233.5 186t217.5 148.5q53 35 64 9.5t-5 -58.5q-8 -25 -72.5 -69.5t-113.5 -67.5q-127 -76 -243 -169t-214 -198.5t-158.5 -222.5t-64.5 -225q-2 -72 38 -110t99 -38q164 0 313.5 95.5t249.5 246.5q55 82 53 163t-65 87 q-109 12 -221.5 -73.5t-185 -212.5t-83.5 -240q-2 -20 -12 -27.5t-20.5 -0.5t-10.5 26q-4 117 72 256t207 238.5t266 95.5q70 -2 110 -47t27 -140q-20 -139 -143 -262t-283.5 -190.5t-306.5 -67.5q-90 0 -146.5 46t-51.5 147z" />
<glyph unicode="7" horiz-adv-x="860" d="M35 518q0 35 33 129q8 29 31.5 80t41.5 53q4 0 7.5 -3t2.5 -11t-3.5 -17.5t-6.5 -23.5l-7 -25q-3 -10 -9 -25.5t-8 -25.5q72 117 237 117q225 0 420 -35q57 45 68 45q18 0 42.5 -20.5t26.5 -36.5q0 -10 -4 -12q-328 -269 -602 -588q-70 -82 -135.5 -215t-65.5 -226 q0 -6 1 -16t1 -14q0 -16 -20 -17q-31 0 -31 62q0 100 57.5 226t129.5 226q205 274 501 543q-129 14 -346 14q-215 0 -278 -190q-12 -35 -45 -35q-16 0 -27.5 11.5t-11.5 29.5z" />
<glyph unicode="8" horiz-adv-x="839" d="M66 145q0 143 282 336q47 31 94 56q-86 63 -127 128.5t-24 155.5q25 119 142.5 195t260.5 76q229 0 180 -203q-2 -10 -16 -26.5t-29 -14.5q-12 2 -8 14q0 6 6 19q23 76 -36.5 119.5t-137.5 37.5q-98 -4 -179 -46t-97 -130q-18 -84 24.5 -147.5t128.5 -126.5q98 55 158 93 t132.5 97.5t108.5 124t36 135.5q0 52 34 62q30 9 38 -30q4 -18 -1 -44q-12 -66 -43.5 -124t-65.5 -97t-98.5 -85t-104.5 -69.5t-119 -68.5q-25 -15 -38 -21q12 -8 35 -24q74 -51 108.5 -81t65.5 -81t20.5 -106.5t-69.5 -119t-147 -108.5q-84 -43 -172.5 -63.5t-166 -16.5 t-126.5 51t-49 133zM158 160q-17 -109 106 -134q127 -25 270 46q135 68 154 170q6 39 -3 72.5t-44 68.5t-56.5 51.5t-77.5 55.5q-18 14 -28 20q-115 -70 -180 -133q-55 -51 -96 -113.5t-45 -103.5z" />
<glyph unicode="9" horiz-adv-x="1048" d="M90 -49q2 12 8 22q27 37 115 84q10 6 26.5 5t24.5 4q125 78 235.5 163.5t216 194t168 236.5t62.5 253q0 86 -49 120t-139 34q-72 0 -162 -33t-175 -89t-143.5 -145t-58.5 -186q0 -80 64 -92q162 -33 339 118t197 321q2 20 12.5 27t19.5 -1t9 -26q0 -115 -87 -239 t-228.5 -201t-276.5 -60q-133 12 -133 162q0 203 202 349t427 146q139 0 194.5 -50t55.5 -153q0 -125 -60.5 -251.5t-140.5 -223t-210 -205t-218 -169t-215 -142.5q-23 -14 -40 -17t-26.5 3t-12.5 17.5t-1 23.5z" />
<glyph unicode=":" horiz-adv-x="413" d="M184 211q0 39 45 72.5t78 33.5q10 0 15 -4l2 -2q-2 -14 -9 -41q-12 -63 -19 -86.5t-24.5 -39t-48.5 -15.5q-39 0 -39 82zM270 631q0 39 46 73.5t79 34.5q8 0 13 -4l2 -4q-2 -14 -9 -41q-12 -63 -19 -86.5t-24.5 -39t-48.5 -15.5q-39 0 -39 82z" />
<glyph unicode=";" horiz-adv-x="413" d="M57 -279q14 20 58.5 77t69 98t24.5 67q0 12 -14.5 37t-14.5 41q0 37 33 63l4 2q51 45 86 46q21 -1 29 -17q14 -45 14 -67q0 -14 -9 -29.5t-11 -22.5q-45 -145 -124 -228t-128 -83q-16 0 -17 14v2zM299 408q0 43 41 82.5t80 39.5q10 0 14 -6v-2q-4 -20 -9 -45.5t-7 -38 t-6 -29t-8.5 -23.5t-9.5 -16.5t-12 -13.5t-17.5 -8t-24.5 -8q-41 0 -41 68z" />
<glyph unicode="&#x3c;" horiz-adv-x="651" d="M174 524q0 18 49 92t117 164t76 103q12 23 39 22q14 0 14 -12t-82 -136t-121 -177q4 -6 32 -39t52.5 -65t52 -68.5t45 -64.5t17.5 -38q0 -27 -21 -26l-16 8q-76 102 -248 225q-6 6 -6 12z" />
<glyph unicode="=" horiz-adv-x="817" d="M219 270q0 18 10.5 32.5t25.5 23t30.5 14.5t24.5 8l9 2q14 0 15 -10q0 -12 -10 -23q106 -8 172 -8q40 0 65 2q74 2 105 4q37 0 36 -12q0 -20 -139 -39.5t-254 -19.5q-8 0 -21.5 1t-19.5 1q-2 0 -8 -1t-10 -1q-31 0 -31 26zM227 438q0 18 10.5 32.5t26 23t30.5 14.5t24 8 l10 2q14 0 14 -10q0 -12 -10 -23q106 -8 172 -8q40 0 65 2q74 2 105 4q37 0 37 -12q0 -20 -139.5 -39.5t-254.5 -19.5q-8 0 -21 1t-20 1q-2 0 -8 -1t-10 -1q-31 0 -31 26z" />
<glyph unicode="&#x3e;" horiz-adv-x="651" d="M174 276.5q0 12.5 82 136.5t121 177q-201 238 -201 274q0 27 23 27l16 -8q70 -94 248 -226q6 -2 6 -12q0 -18 -50 -92t-118 -164t-76 -102q-14 -23 -39 -23q-12 0 -12 12.5z" />
<glyph unicode="?" horiz-adv-x="950" d="M219 20v3q0 35 49 69.5t74 34.5q6 0 6 -4q-25 -133 -39 -154q-17 -26 -57 -26q-33 0 -33 77zM270 983q0 54 39 107q80 109 246 182.5t322 73.5q123 0 200.5 -53.5t77.5 -164.5q0 -92 -93 -197.5t-185.5 -170t-306.5 -201.5q-17 -10 -25 -16q-47 -29 -73 -65t-48.5 -94 t-26.5 -65h-2q-10 -14 -22 -14q-14 0 -25.5 18.5t-11.5 47.5q0 59 49 123q29 35 139.5 105.5t217 138t193.5 170t87 204.5q0 70 -54.5 112t-166.5 42q-166 0 -296 -78t-130 -199q0 -57 16.5 -80.5t32.5 -26.5t16 -10q0 -33 -47 -32q-45 0 -84 42t-39 101z" />
<glyph unicode="@" horiz-adv-x="1646" d="M18 567q0 233 142.5 414.5t351.5 294.5q-12 0 -85 -4t-105 -4q-51 0 -52 16q0 49 353 49h53q197 57 389 58q123 0 214 -27t153.5 -98.5t62.5 -186.5q0 -74 -37 -170q59 -106 60 -219q0 -178 -138.5 -341t-348.5 -258t-419 -95q-262 0 -428 164t-166 407zM100 530 q0 -199 119 -338t338 -139q184 0 385 85t344.5 237.5t143.5 318.5q-1 56 -19 115q-63 -166 -259 -372t-308 -206q-63 0 -78 80q0 86 68 318q-274 -379 -394 -379q-49 0 -49 74q0 94 56.5 254.5t138.5 290.5t143 130h6l23 17q18 20 57 20q33 0 86 -16t61.5 -16t21.5 16t32 16 q51 0 51 -43q0 -29 -45 -131q-2 -6 -18.5 -14t-18.5 -12q-49 -137 -83 -281.5t-34 -181.5q0 -63 37 -64q72 0 244 223.5t223 362.5q-96 178 -287.5 267t-422.5 100q-231 -76 -396.5 -289t-165.5 -443zM485 381q0 -35 21 -35q43 0 152.5 125t144.5 178q51 82 94 177.5 t43 125.5q0 12 -10 13h-6q-14 0 -44 5t-49 3q-29 0 -61 -8q-51 -12 -168 -241.5t-117 -342.5zM811 1307q195 -20 353.5 -101.5t236.5 -216.5q12 51 12 101q0 254 -323 253q-131 0 -279 -36z" />
<glyph unicode="A" horiz-adv-x="1267" d="M82 0l4 33q41 229 207 520q-16 0 -47 -1t-56 -1q-20 0 -20 14.5t17.5 31.5t37.5 17h103q207 336 503 664q-12 16 -12 33q0 23 22.5 43t67.5 20q47 0 47 -43q0 -12 -6 -28q37 -94 88.5 -308.5t73.5 -378.5q68 -2 68 -22q0 -8 -31 -18.5t-31 -13.5q0 -10 14 -106 q16 -106 33 -236t17 -173q0 -20 -30 -37.5t-56 -17.5q-25 0 -25 16v25q0 78 -16.5 271.5t-24.5 254.5q-627 -6 -655 -6q-182 -334 -213 -545q-2 -22 -38 -22h-3q-35 0 -38 7q-1 3 -1 7zM403 610l621 4q-20 164 -68.5 350.5t-76.5 274.5q-125 -133 -261.5 -310t-214.5 -319z " />
<glyph unicode="B" horiz-adv-x="1292" d="M168 1296q0 12 26.5 23.5t59.5 11.5h80q14 86 125 86q31 0 30 -20q0 -16 -20 -43t-20 -29q569 -53 569 -330q0 -111 -105.5 -205t-228.5 -145q57 4 102 4q106 0 195.5 -17.5t163.5 -76t74 -152.5q0 -104 -70 -188t-180.5 -134t-236.5 -77t-249 -27q-98 0 -168 15 q-10 -25 -39 -25q-31 0 -66.5 30t-35.5 50q0 18 23 19q2 0 26 -7q-16 76 -16 224q0 225 34.5 519t80.5 478h-109q-45 2 -45 16zM295 381q0 -209 12 -336q78 -16 180 -16q156 0 293.5 31.5t240.5 114.5t103 208q-2 66 -47 113t-119.5 69.5t-147.5 31.5t-153 9 q-111 0 -356 -37q-6 -53 -6 -188zM305 635h6q6 0 17.5 -1t23.5 -1q43 0 122 13t188.5 46t187.5 107.5t78 179.5q0 12 -4 45q-18 61 -78 109.5t-138.5 76t-144 43t-129.5 23.5h-2q-27 -80 -74 -316.5t-53 -324.5z" />
<glyph unicode="C" horiz-adv-x="1400" d="M121 561q0 330 209 558.5t571 228.5q358 0 359 -250q0 -61 -24 -94t-58 -33q-43 0 -43 39q0 25 20.5 65.5t20.5 57.5q0 72 -85 117.5t-186 45.5q-305 0 -494.5 -222t-189.5 -519q0 -227 122 -384t351 -157q392 1 615 318q10 10 14 10q10 0 10 -31q0 -104 -110.5 -187 t-249.5 -120t-260 -37q-287 0 -439.5 160t-152.5 434z" />
<glyph unicode="D" horiz-adv-x="1587" d="M188 1260q0 23 20.5 45t53.5 22h80q16 90 107 90h2q26 0 26 -22q-14 -33 -24 -62h53q176 0 343 -35.5t313.5 -107.5t234.5 -198t88 -287q0 -115 -53.5 -220.5t-142.5 -182.5t-200.5 -139.5t-232.5 -101t-232.5 -59t-205.5 -20.5q-104 0 -166 24.5t-62 61.5q0 16 15 16 q6 0 12 -2q-14 72 -14 199q0 215 38 501.5t85 468.5h-17q-23 0 -63.5 -6t-42.5 -6q-14 0 -15 21zM293 322q0 -72 2 -107q4 -98 40 -138t144 -40q188 0 429 112.5t349 253.5q152 195 152 369q0 109 -53 193t-145.5 134t-188.5 84t-209 48t-181.5 19t-127.5 5h-72 q-139 -471 -139 -933z" />
<glyph unicode="E" horiz-adv-x="1181" d="M113 10q0 16 24.5 41t46.5 29q-2 10 -2 41q0 113 45 522h-26q-20 0 -20.5 14.5t16 31t36.5 18.5q47 389 97 571h-109q-45 2 -45 16q0 10 26.5 21.5t59.5 11.5h80q16 90 117 90q31 0 30 -20q0 -12 -14 -37t-16 -31q6 0 34.5 -1t86.5 -1h133q33 0 149.5 1t200.5 1 q31 0 31 -31q0 -23 -21.5 -56.5t-42.5 -33.5q-8 0 -27.5 26t-41.5 28q-35 4 -175 4q-20 0 -50.5 -1t-45.5 -1q-10 0 -252 4q-70 -238 -110 -561q463 0 585 6q12 0 13 -13q0 -14 -20.5 -32.5t-57.5 -24.5h-529q-30 -309 -30 -444v-9q0 -84 8 -127q27 0 200 -1t332 -1 q131 0 236 33h2q8 0 8 -20q0 -25 -16.5 -49.5t-44.5 -24.5q-43 0 -139.5 -1t-145.5 -1q-616 0 -616 12z" />
<glyph unicode="F" horiz-adv-x="1105" d="M164 29q4 39 63 616h-24q-20 0 -20.5 14.5t16 31t37.5 18.5q39 330 96 571h-109q-45 2 -45 16q0 10 26.5 21.5t59.5 11.5h80q16 88 115 88q31 0 30 -20q0 -8 -5 -19.5t-12 -25t-11 -21.5h35q28 0 85.5 -1t133.5 -1q33 0 149.5 1t200.5 1q31 0 31 -31q0 -23 -21.5 -56.5 t-42.5 -33.5q-8 0 -27.5 26t-41.5 28q-35 4 -175 4q-18 0 -50.5 -1t-45.5 -1q-10 0 -252 4q-66 -203 -116 -561q466 0 591 6q12 0 13 -13q0 -14 -20.5 -32.5t-57.5 -24.5h-535q-51 -414 -51 -514q16 -2 17 -43q0 -104 -68 -104q-49 0 -49 45z" />
<glyph unicode="G" horiz-adv-x="1597" d="M121 559q0 332 228.5 560.5t627.5 228.5q395 0 395 -250q0 -61 -25.5 -94t-64.5 -33t-39 22q0 12 20.5 58.5t20.5 68.5q0 86 -87 131t-216 45q-176 0 -322.5 -62.5t-240.5 -165.5t-145.5 -236.5t-51.5 -276.5q0 -227 122 -384t351 -157q125 0 232.5 33t179.5 86 t118 104.5t70 102.5q10 47 29 168h-473q-20 0 -20.5 14.5t17 31.5t38.5 17q470 1 624 7q12 0 13 -13q0 -14 -20.5 -32.5t-57.5 -24.5h-41q-2 -6 -12.5 -37t-14.5 -46t-13 -51t-13 -68t-7.5 -80t-3.5 -101q0 -16 3.5 -42t3.5 -38q0 -37 -20.5 -61.5t-45.5 -24.5q-39 0 -39 49 q0 55 25 191q-84 -119 -236.5 -175.5t-316.5 -56.5q-285 0 -438.5 159t-153.5 433z" />
<glyph unicode="H" horiz-adv-x="1411" d="M164 25q0 180 49 589h-20q-20 0 -20.5 14.5t14 31t32.5 18.5q29 231 74 446q0 4 7 42t11 52.5t15.5 45t25 44t37 26t54 12.5t30.5 -21v-4q-102 -233 -172 -643q301 0 735 4q29 242 60 422v61q0 76 37.5 128.5t115.5 52.5q31 0 31 -21v-4q-106 -242 -162 -639q10 0 26.5 1 t20.5 1q12 0 13 -12q0 -14 -17.5 -31.5t-50.5 -24.5q-41 -326 -41 -520q2 -20 8 -33.5t6 -19.5q0 -27 -19.5 -43t-43.5 -16q-49 0 -49 45q33 358 57 585h-735q-45 -301 -45 -499q0 -23 7 -44.5t7 -29.5q0 -27 -17.5 -42t-37.5 -15q-43 0 -43 41z" />
<glyph unicode="I" horiz-adv-x="937" d="M94 15q0 14 18 31t38 17h227q68 719 141 1100v62q0 8 2 20t2 21h-237q-20 0 -20.5 14t17 31.5t37.5 17.5h224q18 45 119 45q31 0 30 -20v-4l-12 -19q178 0 264 4q12 0 12 -12q0 -14 -20.5 -32.5t-56.5 -24.5h-224v-4q-78 -219 -130 -608.5t-52 -557.5q0 -23 6 -33 q246 4 295 7q12 0 12 -13q0 -14 -20.5 -32.5t-56.5 -24.5h-242q-20 -16 -45 -16q-27 0 -39 16h-268q-21 0 -21 15z" />
<glyph unicode="J" horiz-adv-x="1056" d="M80 303q0 39 18 39q6 0 30 -52t55.5 -113.5t86 -114t113.5 -52.5q61 0 90 58.5t45 152.5q90 528 127 928q-4 2 -4 20.5t12 96.5h-245q-20 0 -20.5 14t17 31.5t37.5 17.5h234q31 57 100 57q31 0 31 -20v-4l-14 -31q143 0 221 4q12 0 12 -12q0 -14 -20.5 -32.5t-57.5 -24.5 h-182l-6 -23q-63 -276 -90 -534q-4 -35 -11.5 -115t-11.5 -121t-13 -114.5t-18.5 -114.5t-22.5 -98.5t-30.5 -89t-39 -63.5t-49.5 -46.5t-60 -14.5q-104 0 -219 138.5t-115 232.5z" />
<glyph unicode="K" horiz-adv-x="1300" d="M164 719q14 -14 59 -14h17q27 223 57 399v61q0 76 38 128.5t116 52.5q31 0 30 -21v-4q-104 -238 -155 -606q14 4 50 11t50 13q154 59 303.5 158.5t234.5 178.5t167.5 165t91.5 92q-4 4 -4 10q0 20 35.5 42t66.5 22q29 0 29 -23q0 -59 -183.5 -219.5t-414 -312.5 t-351.5 -186q-57 -16 -57 -45q0 -18 25 -43q123 -129 179 -187.5t169.5 -165t195.5 -158t144 -55.5q98 0 98 213q0 20 -3 51t-3 41q0 33 18 33q41 0 41 -125q0 -137 -60.5 -207.5t-129.5 -70.5q-106 0 -297.5 162t-384.5 383q-10 8 -35 32q-31 -260 -31 -428 q2 -20 8.5 -33.5t6.5 -19.5q0 -27 -19.5 -43t-44.5 -16q-49 0 -49 45q43 465 55 571q-77 85 -77 108q0 11 14 11z" />
<glyph unicode="L" horiz-adv-x="1185" d="M115 10q0 14 23.5 38t45.5 32q61 678 121 1024v61q0 76 38 128.5t116 52.5q31 0 30 -21q0 -16 -22.5 -66.5t-24.5 -56.5q-76 -217 -119.5 -572.5t-43.5 -533.5q0 -14 6 -33q29 0 209 -1t335 -1q131 0 236 33h2q8 0 8 -20q0 -31 -18.5 -49.5t-56 -23.5t-68.5 -6h-23 q-26 0 -61 1q-53 2 -72 2q-82 0 -251 1t-253 1q-20 -16 -45 -16q-27 0 -39 16h-59q-14 0 -14 10z" />
<glyph unicode="M" horiz-adv-x="1546" d="M113 18v11q86 637 215 1095q0 6 6 19q-14 12 -15 47q0 82 28 115.5t63 33.5q14 0 20 -2l14 4q12 4 27 5q29 0 29 -19q0 -14 -28 -66.5t-30 -58.5l-24 -61q6 -131 25.5 -257t55.5 -243t95 -187.5t135 -70.5q102 0 257 165t296 494l6 62v10q0 10 -3 32.5t-3 31.5 q0 168 141 168q33 0 33 -23q0 -16 -17.5 -63.5t-19.5 -57.5q-84 -295 -84 -880q0 -182 6 -226q2 -23 9.5 -35t7.5 -20q0 -57 -58 -57q-51 0 -51 39q4 561 23 886q-152 -319 -306.5 -471.5t-263.5 -152.5q-76 0 -138 62.5t-103 165.5t-66.5 213t-40.5 230 q-68 -215 -116 -459.5t-58 -381.5q0 -20 4 -41t4 -27q0 -29 -16 -46t-31 -17q-29 0 -28 34z" />
<glyph unicode="N" horiz-adv-x="1392" d="M176 78q12 266 150 1050q-2 12 -2 37q0 178 122 178q47 0 48 -18q0 -23 -27 -79t-27 -66q0 -92 99.5 -215t272.5 -293t253 -269l18 -24l33 301q20 197 60 422v61q0 84 24.5 132t102.5 48q31 0 30 -20v-4q-154 -352 -200 -1034q22 -58 22 -123v-6q0 -61 -20 -115v-12 q-10 -47 -47 -47t-37 45l14 168q-27 84 -64 137q-55 74 -244.5 269.5t-228.5 238.5q-76 86 -101.5 149.5t-27.5 130.5q-59 -199 -99 -491.5t-40 -450.5q0 -14 1 -48t1 -50q0 -80 -29 -80q-20 0 -38.5 24.5t-18.5 53.5z" />
<glyph unicode="O" horiz-adv-x="1630" d="M127 508q0 166 68.5 328.5t203.5 287.5q-25 -12 -60.5 -29.5t-56 -27.5t-24.5 -10q-18 0 -18 18q0 20 83 61.5t154 67.5q106 104 241.5 172t272.5 68q143 0 144 -78q0 -45 -48 -109q447 -65 447 -497q0 -180 -71.5 -334t-188.5 -253t-262.5 -154.5t-298.5 -55.5 q-287 0 -436.5 153.5t-149.5 391.5zM225 537q0 -225 127 -375t375 -150q123 0 247 51.5t228.5 142.5t171 235.5t66.5 312.5q0 180 -104.5 311t-268.5 152q-31 -37 -51 -37q-10 0 -10 8q0 16 18 33q-29 2 -84 2q-211 -1 -422 -58q-150 -113 -221.5 -279.5t-71.5 -348.5z M584 1235q121 37 301 37q96 0 168 -8q18 43 18 69q0 49 -78 49q-98 0 -214.5 -43t-194.5 -104z" />
<glyph unicode="P" horiz-adv-x="1071" d="M158 29q0 141 50 532t97 615v4q0 4 -3 12t-3 14q0 35 16 84h-12q-14 0 -42 -2t-38 -2q-45 2 -45 17q0 34 142 34h8q6 35 42 57.5t87 22.5q33 0 32 -24q-6 -14 -16 -29.5t-16 -34.5q563 -51 563 -319q0 -129 -105.5 -244t-218.5 -154q-123 -43 -293 -43q-106 0 -127 11 q-28 -157 -28 -410v-18q0 -88 12 -117q0 -8 -6 -12.5t-6 -6.5q-8 -20 -45 -20q-45 0 -45 33zM289 633q12 -12 129 -12q78 0 106 4q139 14 272.5 117.5t133.5 246.5q0 35 -4 53q-18 57 -76.5 103.5t-136.5 73t-143.5 42t-127.5 21.5h-2q-35 -70 -88 -307.5t-63 -341.5z" />
<glyph unicode="Q" horiz-adv-x="1630" d="M127 508q0 166 68.5 328.5t203.5 287.5q-25 -12 -60.5 -29.5t-56 -27.5t-24.5 -10q-18 0 -18 18q0 20 83 61.5t154 67.5q106 104 241.5 172t272.5 68q143 0 144 -78q0 -45 -48 -109q447 -65 447 -497q0 -291 -169 -492.5t-423 -271.5q51 -82 71.5 -112.5t77 -107.5 t96.5 -113t96 -68.5t110 -32.5q61 0 98 49t51 99t21 50q10 0 10 -32q0 -111 -71.5 -167.5t-158.5 -56.5q-53 0 -103 22.5t-87 52.5t-81 86t-68.5 95t-68.5 112t-67 105q-90 -14 -155 -14q-287 0 -436.5 153.5t-149.5 391.5zM225 537q0 -225 127 -375t375 -150q63 0 113 11 q-164 231 -281 231q-31 0 -61.5 -36t-44.5 -36q-4 0 -4 4q0 41 55 83t106 42q53 0 113.5 -47t97.5 -94t92 -129q219 68 373 256t154 457q0 180 -104.5 311t-268.5 152q-31 -37 -51 -37q-10 0 -10 8q0 16 18 33q-29 2 -84 2q-211 -1 -422 -58q-150 -113 -221.5 -279.5 t-71.5 -348.5zM584 1235q121 37 301 37q96 0 168 -8q18 43 18 69q0 49 -78 49q-98 0 -214.5 -43t-194.5 -104z" />
<glyph unicode="R" horiz-adv-x="1196" d="M156 641q0 8 12 8q12 -12 47 -12q29 242 94 534v5q0 4 -3 12t-3 14q0 35 16 84h-12q-14 0 -41.5 -2t-38.5 -2q-45 2 -45 16q0 35 150 35q16 84 125 84q33 0 32 -24q-27 -61 -28 -68q565 -51 565 -324q0 -115 -95 -222t-202 -148q-152 -59 -338 -60h-22q-35 0 -35 -10 t20 -31q25 -25 119 -120t145.5 -142t131 -115.5t142 -102.5t112.5 -38q98 0 98 213q0 20 -3 51t-3 41q0 33 18 33q41 0 41 -125q0 -137 -60.5 -207.5t-129.5 -70.5q-55 0 -132 45t-174.5 134t-166 157.5t-168.5 175.5l-58 51q-18 -162 -18 -358q0 -88 12 -117q0 -8 -6 -12.5 t-6 -6.5q-8 -20 -45 -20q-45 0 -45 33q0 158 49 540q-51 55 -51 72zM289 633q12 -12 129 -12q78 0 106 4q139 14 274.5 116.5t135.5 243.5q0 35 -4 53q-18 57 -76.5 103.5t-136.5 73t-143.5 42t-127.5 21.5h-2q-35 -70 -90 -306.5t-65 -338.5z" />
<glyph unicode="S" horiz-adv-x="1077" d="M80 111v14q0 72 55 72q10 0 14.5 -11.5t9.5 -32t13 -36.5q31 -51 80 -68.5t133 -17.5q152 0 296 90t144 223q0 72 -65.5 124t-160.5 87t-189.5 75t-160 110.5t-65.5 170.5q0 174 187.5 309.5t425.5 135.5q204 0 204 -201q0 -27 -16 -63.5t-41 -36.5q-14 0 -14 26v41 q0 158 -197 158q-84 0 -187.5 -33t-190.5 -108.5t-87 -169.5q0 -2 1 -8.5t1 -10.5q12 -96 85 -162.5t168 -102.5t189.5 -69.5t159 -84t64.5 -123.5q0 -164 -192.5 -303.5t-438.5 -139.5q-225 0 -225 146z" />
<glyph unicode="T" horiz-adv-x="1257" d="M57 1281q-1 15 17 31q18 18 39 17h522q29 18 74 19q31 0 32 -17q379 0 469 4q12 0 13 -12q0 -14 -20.5 -32.5t-57.5 -24.5h-430q-78 -217 -128 -600t-50 -570q2 -20 8 -33.5t6 -19.5q0 -27 -19.5 -43t-44.5 -16q-49 0 -49 45q8 92 22.5 270t24 282.5t28.5 252t44 274.5 v61q0 43 21 97h-500q-21 0 -21 15z" />
<glyph unicode="U" horiz-adv-x="1323" d="M115 395q0 356 129 725q-12 2 -13 23q0 35 35 103.5t56 86.5q39 31 84 31q25 0 40 -10.5t15 -24.5q0 -10 -8 -18q-74 -68 -135.5 -281t-79.5 -375q-23 -195 -23 -286q0 -289 143 -289q150 0 416 358q125 170 203 358.5t78 323.5v45q0 76 37.5 128.5t115.5 52.5 q31 0 31 -21v-4q-92 -213 -150.5 -595t-58.5 -579q16 -23 17 -59q0 -104 -68 -104q-49 0 -49 45q39 438 67 678q-100 -195 -207.5 -341.5t-198.5 -222t-161 -110.5t-121 -35q-100 0 -147 108.5t-47 288.5z" />
<glyph unicode="V" horiz-adv-x="1153" d="M139 586q1 280 58 524q-14 2 -15 31q0 106 53.5 167.5t102.5 61.5q51 0 51 -33q0 -9 -6 -18q-55 -68 -97 -325t-42 -398q0 -248 39 -382t137 -134q164 0 401 418q104 188 187.5 441t83.5 376q0 27 -5.5 54.5t-5.5 31.5q0 31 58 31q43 0 43 -72q0 -111 -107.5 -415 t-204.5 -484q-150 -250 -275.5 -358.5t-217.5 -108.5q-84 0 -138.5 86t-77 214t-22.5 292z" />
<glyph unicode="W" horiz-adv-x="1878" d="M115 395q0 356 129 725q-12 2 -13 23q0 35 35 103.5t56 86.5q39 31 84 31q25 0 40 -10.5t15 -24.5q0 -10 -8 -18q-74 -68 -135.5 -281t-79.5 -375q-23 -195 -23 -286q0 -289 143 -289q35 0 93.5 42t132 126t156.5 239.5t149 350.5q23 168 57 280q-18 6 -18 29 q0 63 46 101t87 38q25 0 42 -11t17 -26q0 -8 -8 -16q-63 -63 -107 -270t-44 -424q0 -201 41.5 -330t127.5 -129q147 0 347 405q94 193 154.5 411t60.5 359q0 23 -2 47.5t-2 30.5q0 37 41 37q61 0 61 -121q0 -129 -80 -366.5t-164 -407.5q-113 -236 -239.5 -355.5 t-219.5 -119.5q-117 0 -171 141.5t-54 368.5q0 74 6 147q-68 -182 -152.5 -320t-162.5 -207t-139.5 -100.5t-104.5 -31.5q-100 0 -147 108.5t-47 288.5z" />
<glyph unicode="X" horiz-adv-x="1370" d="M0 -6q0 10 6 22q86 205 537 615q-68 158 -219 575q-14 37 -15 74q0 59 101 59q25 0 57.5 -12t32.5 -22l-35 -19q-27 -6 -27 -57q0 -145 176 -533q10 8 83 73t105 94.5t101.5 94t105 105.5t80 92t63.5 91t19 69v24q0 20 13 21q37 0 37 -72q0 -33 -18.5 -75t-58.5 -92 t-79 -93t-103.5 -103.5t-105.5 -97t-112.5 -101t-100.5 -89.5q106 -236 217 -408t189 -172q49 0 98 59.5t78.5 129t53.5 129t30 59.5q14 0 14 -31q0 -14 -2 -20q-51 -211 -151.5 -304t-192.5 -93q-139 0 -385 538l-23 45q-135 -125 -308 -313t-202 -254q-14 -35 -36.5 -35 t-22.5 27z" />
<glyph unicode="Y" horiz-adv-x="991" d="M61 1276q0 63 93 63q25 0 55.5 -8t30.5 -20q0 -4 -2 -8.5t-6.5 -8.5t-7.5 -6t-5 -4l-2 -2q-27 -6 -27 -57q0 -139 189 -592q57 49 157.5 144t229.5 252t152 251q20 86 75 86q47 0 47 -41q0 -53 -215 -315q-127 -154 -422 -428q-20 -57 -41.5 -170t-25.5 -181 q-4 -61 -10.5 -95t-22.5 -69.5t-48 -51t-83 -15.5q-35 0 -35 20q1 17 58 121q102 219 102 394q0 23 -2 30q-100 262 -219 631q-14 41 -15 80z" />
<glyph unicode="Z" horiz-adv-x="1138" d="M49 70q0 23 6 53q16 78 262 334t481.5 496.5t235.5 285.5q0 8 -36.5 15.5t-102.5 12.5t-141 5q-135 0 -265.5 -14.5t-162.5 -43.5q18 -12 18 -38q-2 -16 -14 -17q-14 0 -49 35t-35 59q0 31 52 50t166 24.5t168 6.5t181 1q205 0 289 -8q25 -6 40 -31.5t15 -54.5 q0 -23 -10 -39q-47 -72 -214 -245t-338 -338.5t-318.5 -329.5t-167.5 -230q2 0 98 20.5t189 38t225.5 34t230.5 16.5q111 0 175.5 -16.5t64.5 -67.5q0 -49 -37 -106.5t-60 -57.5q-6 0 -8 5t-2 10v6q37 43 37 77q0 72 -150 72q-74 0 -161.5 -7t-148 -15.5t-172 -24.5 t-163.5 -23q-31 -4 -66.5 -12t-58 -13t-30.5 -5q-2 0 -7.5 6t-10.5 25.5t-5 48.5z" />
<glyph unicode="[" horiz-adv-x="1198" d="M41 37q0 160 263 638t419 658q59 68 133 68h260q20 0 21 -15q-1 -12 -9 -26q-6 -12 -15 -14.5t-48 -2.5h-168q-63 0 -151.5 -117.5t-264.5 -422.5q-328 -567 -327 -717q0 -63 188 -63q25 0 94.5 3t93.5 3q10 0 11 -11q0 -14 -13.5 -29.5t-27.5 -15.5h-297q-162 0 -162 64 z" />
<glyph unicode="\" horiz-adv-x="1236" d="M92 1389q0 41 45 41q31 0 273.5 -304.5t497.5 -671t304 -507.5q20 -57 21 -97q0 -40 -33 -40q-12 0 -17 4t-4 12t-3.5 29.5t-12.5 46.5q-63 172 -421.5 652t-635.5 798q-14 14 -14 37z" />
<glyph unicode="]" horiz-adv-x="1138" d="M47 -20q0 12 8 26q6 12 15.5 14.5t48.5 2.5h168q63 0 151 117.5t264 422.5q328 567 328 717q0 63 -188 63q-25 0 -94.5 -3t-94.5 -3q-10 0 -10 11q0 12 13.5 28.5t27.5 16.5h297q162 0 162 -64q0 -160 -263.5 -638t-418.5 -658q-59 -68 -133 -68h-260q-20 0 -21 15z" />
<glyph unicode="^" horiz-adv-x="684" d="M102 934q0 4 7 14q12 18 112.5 105.5t120.5 91.5q14 -4 105.5 -83t119.5 -108q8 -8 8 -16t-8 -8q-6 0 -8 2q-127 70 -227 147q-31 -25 -125 -88t-98 -63q-6 0 -7 6z" />
<glyph unicode="_" horiz-adv-x="671" d="M-4 2l6 6h692l4 -6v-33l-4 -4h-692l-6 4v33z" />
<glyph unicode="`" horiz-adv-x="727" d="M223 1288q0 20 12.5 37.5t30.5 17.5q8 0 21 -6q113 -76 206 -149.5t93 -91.5q0 -6 -6.5 -6t-10.5 2q-309 153 -329 165q-16 8 -17 31z" />
<glyph unicode="a" d="M12 68q0 94 56.5 254.5t138.5 290.5t143 130h6l23 17q18 20 57 20q31 0 86.5 -16t61.5 -16q8 0 21 16t32 16q51 0 51 -45q0 -18 -7 -40.5t-20.5 -52.5t-15.5 -36q-2 -4 -19.5 -12t-19.5 -14q-45 -127 -79.5 -271.5t-34.5 -177.5q0 -51 28.5 -51t70.5 35t72.5 69.5 t32.5 34.5q4 0 4 -8q0 -31 -20 -47q-2 -2 -18.5 -17.5t-26.5 -23.5t-29.5 -25.5t-34 -28t-35 -24.5t-36 -21.5t-31.5 -13.5t-31 -6q-43 0 -51 51q0 86 68 318q-274 -379 -394 -379q-49 0 -49 74zM106 125q0 -35 21 -35q43 0 152.5 125t144.5 178q51 82 94 177.5t43 125.5 q0 12 -10 13h-6q-12 0 -43 4t-49 4q-29 0 -62 -8q-51 -14 -168 -242.5t-117 -341.5z" />
<glyph unicode="b" horiz-adv-x="598" d="M-4 80q0 31 49 156q6 16 19.5 24t15.5 14q221 575 350 1018l15 13q15 12 37 24t36 12q20 0 21 -30q-23 -84 -144 -412t-198 -516q78 117 205.5 261t191.5 144q41 0 41 -75v-15q-2 -41 -39 -184q45 23 61 23q6 0 7 -5q0 -10 -26 -30.5t-52 -30.5q-80 -264 -156 -348 q-29 -31 -117 -85t-108 -54q-84 0 -125 39l-8 -19q-3 -6 -13 -6q-18 0 -40.5 24.5t-22.5 57.5zM119 104q49 -55 100 -55q84 0 156.5 125t107.5 248q-242 -127 -311 -203q-12 -25 -29.5 -63.5t-23.5 -51.5zM186 270q124 101 314 197q33 86 37 178q0 43 -21 43 q-68 0 -330 -418z" />
<glyph unicode="c" horiz-adv-x="473" d="M8 129q0 141 92.5 340t159.5 229q31 12 66.5 31t61.5 29t56 10q96 0 97 -96q0 -21 -2 -33q-6 -35 -24.5 -56.5t-35.5 -21.5q-25 0 -24 37q0 12 8 45t8 47q0 33 -35 33q-25 0 -77 -34t-78 -60q-39 -41 -113 -224.5t-74 -283.5q0 -76 60 -76q76 0 151.5 58.5t122.5 119 t49 60.5q10 -4 10 -15q0 -31 -49 -97.5t-136 -126.5t-169 -60q-125 0 -125 145z" />
<glyph unicode="d" horiz-adv-x="694" d="M10 47q0 88 61.5 255t146.5 303t142 136h9q14 0 33.5 15.5t41.5 15.5q31 0 87.5 -16.5t60.5 -16.5q2 0 2 2q147 397 151 410q-23 0 -22 25q0 57 61 149q8 16 33 16q26 0 55 -14q6 -3 7 -18q0 -33 -32 -122t-88.5 -231.5t-86.5 -232.5q2 2 4 2q8 0 17 -14.5t9 -26.5 t-20 -12q-27 0 -29 6q-41 -92 -103.5 -299t-62.5 -254t27 -47q31 0 72 37t72.5 72.5t37.5 35.5t6 -10q0 -6 -3 -16.5t-6 -17.5t-5 -7q-47 -47 -131 -107.5t-131 -60.5q-39 0 -39 43q0 111 78 338q-88 -125 -214 -262t-198 -137q-43 0 -43 61zM106 121q0 -33 20.5 -33 t59.5 33t72 69.5t72 80.5t41 48q55 61 101 144.5t76 155t32 75.5q0 23 -121 23q-35 0 -51 -4q-45 -12 -173.5 -248t-128.5 -344z" />
<glyph unicode="e" horiz-adv-x="518" d="M41 117q0 23 6 53q14 78 38 151.5t26 90.5q-31 8 -31 32q0 23 35 23h14q82 164 94 186q57 109 219 109q70 0 97 -125q12 -63 12 -102q0 -45 -31 -77t-80 -45.5t-88 -18.5t-73 -5q-20 0 -46 1t-28 1q-68 -172 -68 -270q0 -82 62 -82q43 0 100 54t100 108.5t52 54.5 q14 0 14 -16q0 -57 -112.5 -158.5t-176.5 -101.5q-51 0 -93 31.5t-42 105.5zM223 449q4 0 33 -2.5t49 -2.5q84 0 121 19t39 76q0 51 -10.5 88t-23.5 51t-28 14q-41 0 -97 -88t-83 -155z" />
<glyph unicode="f" horiz-adv-x="430" d="M-369 -260q0 57 17.5 106.5t32.5 49.5q8 0 10 -13q-4 -41 -4 -57q0 -94 36.5 -151.5t90.5 -57.5q49 0 100 52t94 159q57 143 154.5 458.5t124.5 418.5q-49 -8 -137 -9q-47 0 -48 19q0 14 27 33.5t43 19.5h131q94 334 129 410q18 41 40 71.5t47.5 49t48 29.5t54 16.5 t53 7.5t59 3t57.5 3q32 -6 32 -45q0 -31 -13 -58.5t-28 -27.5q-2 0 -12 21.5t-33.5 42t-58.5 20.5q-98 0 -143 -115q-90 -231 -140 -428h201q57 0 57 -12q0 -20 -94 -31.5t-180 -11.5q-8 -20 -50 -163.5t-94.5 -321t-78.5 -261.5q-68 -213 -167.5 -302t-199.5 -89 q-158 0 -158 164z" />
<glyph unicode="g" horiz-adv-x="600" d="M-150 -608.5q0 108.5 100.5 304t168.5 271.5q6 8 41 21q-10 6 -26.5 15t-28 14.5t-19.5 13.5t-8 16q0 23 19.5 42.5t39.5 19.5h8q125 -47 236 -207t111 -299q-1 -29 -3 -41q-18 -104 -181 -191.5t-308 -87.5q-150 0 -150 108.5zM-92 -582q0 -84 96 -84q104 0 244.5 70 t144.5 131v27q0 109 -58.5 217t-139.5 180q-4 -6 -50.5 -71.5t-78 -114.5t-72.5 -120t-63.5 -131.5t-22.5 -103.5zM113 270q0 176 109.5 340t230.5 164q10 0 30 -4q0 74 54 74q59 0 59 -94q0 -14 -2 -49t-2 -52l9 -6q9 -6 15.5 -11t12.5 -13.5t6 -16.5q0 -6 -2 -10 q-6 -8 -29 -8h-18q-2 -12 -9.5 -50t-13.5 -70t-10 -42q-51 -131 -142.5 -210t-189.5 -79q-57 0 -82.5 33t-25.5 104zM199 256q0 -63 51 -63q76 0 168 121.5t92 277.5q-23 4 -27 64.5t-28 60.5q-63 0 -118.5 -82t-86.5 -162q-51 -139 -51 -217z" />
<glyph unicode="h" horiz-adv-x="634" d="M16 8q0 18 11 41q55 143 106 297t109.5 343.5t95.5 299.5q6 18 6 37q0 8 -2 15.5t-2 11.5q0 8 6 26q47 131 80 173t100 42q27 0 31 -18q-223 -451 -362 -959q305 477 460 478q43 0 43 -29q0 -18 -14 -41q-111 -178 -206 -396t-95 -339q0 -29 16 -29q6 0 36 18.5t36 18.5 q10 0 10 -12q0 -25 -39 -52.5t-75 -27.5q-51 0 -52 76q0 88 57.5 248.5t115 292.5t57.5 149q0 4 -2 4q-8 0 -37 -31q-129 -145 -217 -283.5t-118 -212t-61.5 -117.5t-74.5 -44q-18 0 -19 20z" />
<glyph unicode="i" horiz-adv-x="344" d="M37 25q0 18 8 43q23 63 46.5 130.5t35.5 104.5t25.5 76t19.5 58.5t11 39t7.5 29.5t2.5 20q0 8 -3.5 15.5t-3.5 11.5q0 8 7 27q45 129 79.5 172t102.5 43q27 -1 31 -19q-4 -6 -28 -51t-40 -78t-45 -96.5t-51.5 -120.5t-47 -137t-42.5 -160q-2 -6 -2 -16q0 -25 20 -25 q12 0 66.5 31t70.5 31q14 0 17 -9q0 -25 -104.5 -91t-143.5 -66t-39 37zM336 987q0 43 63.5 94.5t110.5 51.5q9 -1 12 -7q0 -27 -39 -67.5t-49 -63.5q-27 -68 -57 -75q-41 0 -41 67z" />
<glyph unicode="j" horiz-adv-x="411" d="M-334 -354q0 49 13.5 90t25.5 41q8 0 10 -13v-20q0 -111 41 -180.5t101 -69.5q47 0 92 51.5t78 155.5q121 387 223 788q4 16 4 35q0 8 -3 16.5t-3 14.5q0 14 4 25q33 127 65.5 171t98.5 44q27 -1 33 -19q-145 -348 -277 -928q-49 -213 -140 -302t-192 -89 q-174 0 -174 189zM352 1010q0 43 67.5 88t106.5 45q29 0 29 -19t-37 -39q-25 -14 -43 -41.5t-26.5 -53t-22.5 -45t-33 -19.5q-14 0 -26.5 31.5t-14.5 52.5z" />
<glyph unicode="k" horiz-adv-x="550" d="M-2 -25q0 8 10 39q57 143 110.5 302t119 367t98.5 306q8 25 8 37q0 8 -3 15.5t-3 11.5q0 8 6 26q47 131 80 173t100 42q29 0 31 -18q-123 -248 -199.5 -444.5t-136.5 -434.5l94 84q94 84 196.5 173t117.5 102q55 41 84 41q12 0 12 -9q0 -22 -55 -65q-127 -74 -241 -198 t-114 -163q0 -74 63.5 -184t112.5 -151q39 -33 39 -54q0 -12 -18 -12q-41 0 -94.5 56.5t-91 114.5t-79.5 134l-42 76q-88 -244 -92 -307q0 -14 -38 -46t-61 -32q-14 0 -14 18z" />
<glyph unicode="l" horiz-adv-x="366" d="M35 25q0 20 8 43q53 145 99 288.5t105.5 341t88.5 291.5q6 18 6 37q0 8 -3 15.5t-3 13.5t6 24q41 129 76 172t102 43q29 0 31 -18q-113 -233 -229.5 -564t-171.5 -579q-2 -6 -3 -16q0 -25 21 -25q12 0 66.5 31t68.5 31q12 0 19 -9q0 -25 -102.5 -91t-145.5 -66 q-39 0 -39 37z" />
<glyph unicode="m" horiz-adv-x="999" d="M-4 -18q0 14 9 36.5t20.5 45t13.5 26.5q33 80 135 399q8 25 8 37q0 8 -3 15.5t-3 11.5q0 8 6 27q45 129 80 172t100 43q27 0 31 -19q-168 -344 -200 -491q341 544 517 544h1q41 0 41 -26q0 -18 -15 -41q-178 -301 -225 -531q100 199 191.5 308.5t271.5 240.5 q39 31 102 31q41 0 41 -29q0 -14 -12 -39q-248 -438 -299 -706q-6 -20 -6 -41q0 -29 18 -29q8 0 42 19.5t40 19.5q10 0 10 -12q0 -27 -45 -55.5t-90 -28.5q-59 0 -59 82q0 47 20.5 119.5t41 123t58 135.5t44.5 101q63 150 63 178q0 14 -10 15q-6 0 -23 -11 q-106 -72 -225 -231.5t-176 -372.5q-4 -16 -43 -37.5t-66 -21.5q-25 0 -24 18l1 4l1 4q57 270 192 629q10 27 10.5 37t-6.5 10q-10 0 -30 -22q-131 -152 -231.5 -301.5t-140.5 -227.5t-79 -127t-82 -49q-16 0 -16 17z" />
<glyph unicode="n" horiz-adv-x="667" d="M-6 -20q4 -6 76.5 204.5t103.5 304.5q8 25 8 37q0 8 -3 15.5t-3 11.5q0 8 6 27q47 131 80 173t100 42q27 0 31 -19q-168 -344 -200 -491q337 544 517 544h1q41 0 41 -26q-1 -18 -15 -41q-104 -174 -194 -399.5t-90 -337.5q0 -37 16 -37q6 0 40 20.5t40 20.5q12 0 12 -13 q0 -25 -45 -55.5t-90 -30.5q-59 0 -59 88q0 80 32.5 186.5t102 272.5t69.5 168q10 27 11 41q0 10 -7 10q-10 0 -45 -37q-88 -98 -251.5 -335.5t-167.5 -292.5q-2 -14 -39 -40t-62 -26q-14 0 -16 15z" />
<glyph unicode="o" horiz-adv-x="534" d="M43 133q0 47 8 94q10 53 37 137.5t70 182.5t105.5 166.5t125.5 68.5h14q0 29 16.5 49.5t45.5 20.5q29 -2 51.5 -120t65.5 -122q39 -6 39 -22q0 -19 -39 -37q-23 -10 -47 -10q0 -240 -125 -410t-248 -170q-119 0 -119 172zM135 123q0 -100 58 -100q82 0 183 166.5 t101 367.5q-18 10 -44.5 72.5t-37.5 62.5q-63 0 -147 -187.5t-105 -295.5q-8 -47 -8 -86z" />
<glyph unicode="p" horiz-adv-x="610" d="M-105.5 -364.5q33.5 106.5 98 277.5t66.5 179q-6 14 -6 35q0 47 45 76q137 424 160 506q0 2 -22.5 5t-22.5 13q0 16 32 30l31 13q-8 8 -8 16q0 29 39 63t66 34q16 0 16 -21q0 -18 -10 -39l-23 -49q145 -102 193 -334q10 2 50 16.5t60 18.5q8 2 22.5 2t14.5 -6 q0 -14 -20.5 -25.5t-62.5 -23.5t-56 -19q10 -53 10 -116q0 -160 -80.5 -232.5t-191.5 -72.5q-119 0 -184 53q-18 -53 -69.5 -201.5t-74.5 -214.5q-2 -4 -2 -8q0 -6 7.5 -18.5t7.5 -24.5q0 -25 -31 -79t-64 -54q-24 0 -24 47t33.5 153.5zM135 80q72 -47 139 -47 q104 0 154.5 68.5t50.5 166.5q0 46 -10 107q-35 0 -141.5 -64.5t-147.5 -101.5zM203 281q98 68 256 127q-14 74 -39 137t-46.5 96t-35.5 33q-6 0 -26.5 -58.5t-55.5 -169t-53 -165.5z" />
<glyph unicode="q" horiz-adv-x="636" d="M20 47q0 90 71 257t167 303t160 136h6l22 17q18 20 58 20q33 0 86 -16t59 -16q8 0 23.5 16t34.5 16q55 0 55 -51q0 -39 -39 -123q-2 -4 -19.5 -12t-19.5 -14q-84 -199 -123 -294.5t-94 -259t-88 -307.5q-8 -33 -8 -57q0 -37 22 -37q39 0 116 73t83 73q10 0 10 -15 q0 -12 -7 -26.5t-11 -16.5q-201 -172 -279 -172q-41 0 -47 51q0 133 242 770q-61 -78 -127 -151.5t-159 -150t-146 -76.5q-47 0 -48 63zM133 119q0 -29 19 -29q43 0 152.5 116t164.5 187q59 90 107.5 183.5t48.5 121.5q0 10 -9 11h-6q-12 0 -42.5 5t-49.5 5q-31 0 -61 -10 q-27 -6 -105 -119t-148.5 -256.5t-70.5 -214.5z" />
<glyph unicode="r" horiz-adv-x="552" d="M12 -2q0 55 13.5 100t33.5 54q45 170 65 255l19 85q4 14 4 32q0 10 -4 18.5t-4 16.5q0 12 4 23q33 129 67 176t99 47q25 0 29 -17q-2 -6 -29.5 -71.5t-51.5 -122.5t-52.5 -145.5t-44.5 -161.5q68 133 209 320.5t233 187.5q49 0 49 -62q0 -63 -47 -129q-16 -23 -44 -44 t-42 -21q-12 0 -12 12q0 8 19.5 57t19.5 68q0 14 -10 14q-72 0 -212.5 -221t-207.5 -432q-12 -16 -39 -32.5t-45 -16.5q-12 0 -19 10z" />
<glyph unicode="s" horiz-adv-x="520" d="M29 6q0 25 22 25q68 0 189.5 42t121.5 91q0 29 -46 67.5t-100 71.5t-100 79t-46 89q0 35 24 66q18 23 39 44t39 37.5t42 33t42 28.5t43 24l39 20q14 7 37.5 17.5t33 13.5t30 11t22.5 8q35 10 53 10q74 0 74 -82q-4 -41 -53.5 -116.5t-75.5 -75.5q-8 0 -8 12 q0 18 22.5 74.5t22.5 73.5q0 31 -37 30q-6 0 -68 -10q-51 -12 -134 -65.5t-83 -116.5q0 -23 10 -41q27 -53 93.5 -90t114.5 -70t48 -86q0 -90 -138 -173t-236 -83q-16 0 -26.5 13.5t-10.5 27.5z" />
<glyph unicode="t" horiz-adv-x="473" d="M109 715q0 14 26.5 33.5t42.5 19.5h131l8 29q6 25 7 34q0 8 -4.5 15.5t-4.5 13.5t7 25q41 131 74.5 174t99.5 43q29 0 32 -19q-45 -96 -125 -315h199q57 0 57 -12q0 -20 -94 -31.5t-180 -11.5q-102 -289 -166 -553q-10 -41 -10 -60q0 -35 22 -34q41 0 120 72.5t85 72.5 q10 0 10 -12q0 -35 -22 -45q-188 -170 -264 -170q-47 0 -47 59q0 33 49 193q6 20 131 469q-49 -8 -137 -9q-47 0 -47 19z" />
<glyph unicode="u" horiz-adv-x="681" d="M14 18q0 31 23 88q0 2 49 111t79 187.5t30 113.5q0 10 -4.5 19.5t-4.5 15.5q0 2 4 22q35 131 66 173.5t102 42.5q29 0 35 -19q-246 -604 -246 -633q0 -8 7 -8q8 0 49 33q205 158 360 442q2 63 39 131t109 68q22 -1 24 -19q-6 -18 -45 -122.5t-63 -176.5 q-37 -104 -79 -253.5t-42 -182.5q0 -6 4 -6q16 0 82.5 51t91.5 51q16 0 16 -10q0 -14 -46 -47t-105.5 -68.5t-65.5 -39.5q-14 -12 -41.5 -42t-51 -49.5t-42.5 -19.5q-27 0 -26 23q0 14 32.5 43.5t42.5 52.5q35 84 140 489q-96 -143 -255 -320t-239 -177q-29 0 -29 36z" />
<glyph unicode="v" horiz-adv-x="714" d="M104 -12q0 14 4.5 19t9.5 9t13 12.5t15.5 34t14.5 67.5t13 123t8 189q0 37 -12 55.5t-12 71.5q0 100 19.5 139.5t80.5 39.5q29 0 40 -19q-72 -571 -79 -645q2 2 41 35t77 71.5t88 98t94 141.5t73 174q4 16 4 25q0 14 -8 35.5t-8 31.5q0 25 43 77t71 52q23 0 23 -43 q0 -24 -6 -57q-23 -121 -103 -259t-174 -242.5t-183 -175.5t-134 -71q-12 0 -13 11z" />
<glyph unicode="w" horiz-adv-x="1009" d="M35 653q0 29 53 76t82 47q84 0 84 -289q0 -61 -6 -165q63 117 170.5 280.5t150.5 163.5q16 23 41 22q39 0 39 -45q0 -6 -2 -16q-2 -11 -2 -16q0 -15 19 -68q16 -49 40.5 -154.5t43 -184.5t20.5 -79q29 0 127 192.5t104 297.5q0 12 -8 36.5t-8 39.5q0 25 21 47h2 q23 18 34 18q27 0 40.5 -40t13.5 -77q0 -12 -37 -94t-102.5 -207t-129.5 -227q-25 -39 -38 -64.5t-17 -37t-15.5 -50.5t-19.5 -67q-8 -14 -22 -15q-20 0 -42 26t-22 48q0 8 1 25.5t1 27.5q0 281 -112 553q-74 -43 -210 -312t-136 -361q-6 -23 -23 -23q-20 0 -45 28.5 t-25 51.5q0 6 2 8q86 211 86 389q0 88 -14 144.5t-32.5 77t-39.5 20.5q-4 0 -28.5 -16.5t-32.5 -16.5q-6 0 -6 6z" />
<glyph unicode="x" horiz-adv-x="577" d="M-154 -190q0 47 92.5 166.5t213 256t151.5 183.5l-3 14q-3 14 -6 28.5t-9 37t-13.5 42t-18.5 40t-22.5 35t-27 23.5t-31.5 9q-10 0 -28.5 -2t-24.5 -2q-27 0 -29 25q-2 6 26.5 23.5t39.5 17.5q29 2 58.5 34.5t35.5 32.5h2q35 0 76 -110.5t53 -174.5q27 49 141.5 173 t141.5 124q23 0 22 -30q0 -52 -27 -70q-18 -6 -20 -6l-6 2q-6 0 -65.5 -60.5t-75.5 -78.5q-98 -98 -99 -105l53 -189q53 -189 54 -237q0 -23 -27 -62.5t-53 -39.5q-8 0 -22.5 83t-35 198.5t-40.5 170.5q-47 -61 -137.5 -169.5t-158 -197.5t-118.5 -181q-23 -41 -43 -41 q-18 0 -19 37z" />
<glyph unicode="y" horiz-adv-x="649" d="M-178 -637q0 74 88 224.5t181 279.5t95 137q23 68 23 184q0 168 -32 295t-87 127q-8 0 -18 -1l-11 -1q-8 0 -8 10q0 16 45 50q6 4 35 45t43 41q43 0 77 -132.5t34 -293.5q0 -16 -1 -49t-1 -50q0 -33 16 -32q47 0 189.5 217t142.5 276q0 12 -10 12q-4 0 -14.5 -4t-16.5 -4 q-10 0 -17 11q0 27 59.5 59.5t96.5 32.5q10 0 14 -2q6 -8 7 -23q0 -82 -179.5 -329.5t-287.5 -374.5q0 10 -4 -3q-31 -122 -36 -136q-10 -22 -20 -21q-8 0 -21.5 5t-15.5 5q-276 -371 -276 -475q0 -18 8 -37.5t8 -26.5q0 -23 -24.5 -39t-48.5 -16q-33 0 -33 39z" />
<glyph unicode="z" horiz-adv-x="620" d="M-23 43q0 55 39 90q356 344 537 561h-111q-160 0 -186 -28q-2 -2 -18.5 -22.5t-32 -38t-19.5 -17.5q-18 0 -18 14q0 86 46 124t163 38q4 0 52 1t83 1t79 -3t68.5 -12.5t24.5 -23.5q0 -12 -2 -20q-10 -37 -27.5 -55.5t-33 -22.5t-15.5 -6q-102 -84 -271 -255t-235 -270 q-4 -4 -4 -12q0 -33 140 -33q203 0 317 29q20 6 35 6q20 0 20 -14q0 -27 -24.5 -60.5t-53.5 -33.5q-27 0 -26 20q-123 10 -197 10q-78 0 -171 -7t-107 -7q-51 0 -52 47z" />
<glyph unicode="{" horiz-adv-x="661" d="M74 547q0 16 37 26q143 14 205.5 57.5t101.5 174.5q10 35 24.5 98.5t24.5 103.5t29.5 93t48 86t70.5 64.5t105.5 46t145.5 14.5h2q10 0 11 -19q0 -23 -21 -24q-154 0 -214 -70t-99 -227q-94 -381 -309 -428q121 -45 120 -172q0 -80 -52 -233.5t-52 -233.5q0 -55 31.5 -84 t70.5 -30t71 -3t32 -12q0 -8 -14.5 -16.5t-32.5 -8.5q-109 0 -173.5 31t-64.5 125q0 82 54.5 239.5t54.5 241.5q0 59 -33 94t-71 41t-70.5 11.5t-32.5 13.5z" />
<glyph unicode="|" horiz-adv-x="448" d="M205 -150q0 6 4 23q14 57 14 354v682q0 113 -4 192t-8 114.5t-4 46.5q0 20 35 20q82 0 82 -176q0 -223 -21.5 -700.5t-50.5 -559.5q-14 -27 -29 -26q-18 0 -18 30z" />
<glyph unicode="}" horiz-adv-x="870" d="M55.5 -229.5q-0.5 18.5 20.5 24.5q154 0 214 69.5t99 227.5q94 381 309 428q-121 45 -120 172q0 80 52 233.5t52 231.5q0 57 -33 85t-70.5 30t-70.5 4t-33 12q0 8 14.5 16.5t34.5 8.5q109 0 172.5 -31t63.5 -125q0 -84 -54.5 -241.5t-54.5 -239.5q0 -59 33 -94t72 -41 t71.5 -11.5t32.5 -13.5q0 -16 -37 -27q-145 -14 -207.5 -57t-99.5 -174q-10 -35 -24.5 -98.5t-24.5 -103.5t-29.5 -93t-48.5 -86t-71 -64.5t-105 -46t-145 -14.5h-2q-10 0 -10.5 18.5z" />
<glyph unicode="~" horiz-adv-x="622" d="M59 901q0 14 34 44t54 40q33 20 74 21q35 0 98.5 -21.5t96.5 -21.5q49 0 86 43q12 -1 12 -9q0 -39 -57.5 -70.5t-79.5 -31.5q-37 0 -102.5 27.5t-100.5 27.5t-68.5 -26.5t-42.5 -26.5q-4 0 -4 4z" />
<glyph unicode="&#xa1;" horiz-adv-x="413" d="M-293 -489q0 4 4 12q47 59 228.5 426.5t181.5 456.5q0 12 -7.5 22t-7.5 14q0 16 27 31.5t47 15.5q2 0 6 -1l4 -1q10 -8 11 -32q0 -55 -47.5 -182.5t-129 -311.5t-81.5 -186q-8 -20 -37 -75.5t-51.5 -100.5t-22.5 -58q0 -6 16.5 -10t20.5 -14q0 -12 -32 -20.5t-68 -8.5 q-61 0 -62 23zM227 711q25 133 40 154q17 26 57 26q33 0 32 -78v-2q0 -35 -49 -69.5t-74 -34.5q-6 0 -6 4z" />
<glyph unicode="&#xa2;" horiz-adv-x="473" d="M127 500q0 106 84 252.5t147 175.5q25 8 63 25.5t54 21.5q80 199 110.5 258t51.5 59q2 0 4 -1t4 -1q8 -4 8 -16q0 -8 -6 -23q-31 -61 -121 -272q86 -4 86 -72q0 -35 -18.5 -57.5t-38.5 -22.5t-20 27q0 8 7 31.5t7 34.5q0 27 -37 26q-106 -248 -199 -497q57 16 114.5 59 t91.5 80t36 37q8 0 8 -11q0 -35 -82 -106.5t-182 -99.5q-90 -250 -90 -326q0 -12 3 -21.5t7 -14.5t8 -8t7 -4l4 -1q0 -8 -4.5 -15.5t-10.5 -11.5t-13 -6t-10 -3l-3 -1q-33 0 -33 72q0 98 84 329h-12q-109 0 -109 103zM205 496q0 -53 39 -56h18q135 344 195 486 q-37 -18 -80 -49q-37 -31 -104.5 -168.5t-67.5 -212.5z" />
<glyph unicode="&#xa3;" horiz-adv-x="1673" d="M82 31q0 106 135 106q76 0 232 -51q39 49 120.5 220t126.5 308q-10 0 -55 -1t-72 -1q-88 0 -99 14q-5 5 -5 13q0 37 78 37q29 0 85 -1t81 -1q12 29 36.5 106.5t48 150.5t67.5 160t94.5 150.5t130 106.5t174.5 43q88 0 148 -56.5t60 -140.5q0 -72 -30.5 -111t-67.5 -39 q-29 0 -29 13q0 2 19.5 19.5t38 50t18.5 73.5q0 68 -49 110t-135 42q-63 0 -118.5 -37t-93.5 -89t-77 -134t-60.5 -144.5t-50 -149.5t-42.5 -124q322 0 321 -37q0 -23 -72 -23q-59 0 -156.5 2t-105.5 2q-2 -2 -32.5 -79.5t-42 -104t-43 -97.5t-53 -110t-51.5 -86t-56 -78 q141 -68 363 -112.5t392 -44.5q104 0 190.5 58.5t86.5 158.5q0 55 -19.5 95t-39 57.5t-19.5 19.5q0 18 25 18q37 0 70.5 -50t33.5 -126q0 -147 -99.5 -227t-246.5 -80q-53 0 -105.5 4t-116 17.5t-99 20.5t-113.5 31.5t-95.5 31t-108.5 37t-95 32.5q-180 61 -258 62 q-98 0 -99 -93q0 -10 -18 -10q-16 0 -31.5 16.5t-15.5 51.5z" />
<glyph unicode="&#xa4;" horiz-adv-x="980" d="M100 184l209 197q-72 45 -71 133q0 141 137 223l-109 166l60 19q8 -37 80 -168q80 35 172 34q71 0 122 -24q89 86 148 154l47 -19q-4 -4 -32.5 -28.5t-65.5 -57.5t-72 -65q59 -43 59 -125q0 -80 -45 -142.5t-118 -97.5q98 -162 129 -197h-68q-8 27 -98 181 q-59 -20 -131 -20.5t-119 22.5l-168 -185h-66zM317 545q0 -59 42 -99t118 -40q102 0 166 58t64 140q0 59 -37 96t-111 37q-106 0 -174 -54t-68 -138z" />
<glyph unicode="&#xa5;" horiz-adv-x="1064" d="M-16 328q0 20 22.5 35.5t42.5 15.5q18 0 50 -7t38 -7q39 0 133 -5l4 18q4 17 9.5 45t7.5 46q-86 -4 -125 -4q-51 0 -72 2q-2 0 -9 -1t-11 -1q-27 0 -41.5 14.5t-14.5 28.5q0 20 22.5 35.5t43.5 15.5q18 0 50 -7t38 -7q39 0 125 -4q0 18 -2 24q-100 262 -219 631 q-14 41 -15 80q0 63 93 63q25 0 55.5 -8t30.5 -20q0 -4 -2 -8.5t-6.5 -8.5t-7.5 -6t-5 -4l-2 -2q-27 -6 -27 -57q0 -139 189 -592q57 49 157.5 144t229.5 252t152 251q20 86 75 86q47 0 47 -41q0 -53 -215 -315q-127 -154 -422 -428q-12 -37 -14 -45q131 0 254 6 q51 0 51 -13q0 -35 -319 -55q-14 -72 -23 -119q72 0 113 2l25 1q26 1 63 2t55 1q51 0 51 -12q0 -35 -317 -55q-6 -33 -12 -92.5t-11.5 -86t-20.5 -59t-46 -45t-80 -12.5q-35 0 -35 20v5q74 133 113 264q-86 -4 -121 -4q-49 0 -70 2q-2 0 -9 -1t-11 -1q-27 0 -41 14t-14 29z " />
<glyph unicode="&#xa6;" horiz-adv-x="448" d="M205 -156q0 18 10 102.5t10 180.5q0 37 -1 181t-1 259l86 2q-8 -186 -13 -292.5t-15.5 -229.5t-24.5 -178t-32.5 -55t-18.5 30zM207 1262q0 20 35 20q82 0 82 -176q-1 -199 -11 -447l-90 5v245q0 113 -4 192t-8 114.5t-4 46.5z" />
<glyph unicode="&#xa7;" horiz-adv-x="1282" d="M-29 -352q0 74 56 73q10 0 13 -11t8 -32.5t15 -37.5q29 -51 79.5 -68.5t136.5 -17.5q156 0 301 92t145 225q0 72 -66.5 124t-162 88t-191.5 76t-162.5 111.5t-66.5 171.5q0 117 90 221.5t235 165.5q-20 43 -20 101q0 176 189.5 312t428.5 136q207 0 207 -204 q0 -25 -16 -62t-41 -37q-14 0 -14 27v43q0 158 -199 158q-84 0 -188.5 -34t-192.5 -111t-88 -171q0 -4 1 -10t1 -8q12 -96 86 -164t170 -103.5t191.5 -69.5t160 -85t64.5 -125q0 -111 -99.5 -221.5t-246.5 -169.5q41 -45 41 -99q0 -166 -196 -305t-441 -139q-227 0 -228 145 v15zM162 500q0 -4 1 -10.5t1 -8.5q6 -47 29.5 -89t47 -66.5t77 -54t77 -41t93 -38t81.5 -30.5q123 -49 187 -94q113 39 193.5 118.5t80.5 171.5q0 76 -71.5 130.5t-164 83t-200 83t-162.5 123.5q-115 -43 -192.5 -115.5t-77.5 -162.5z" />
<glyph unicode="&#xa8;" horiz-adv-x="808" d="M215 1083q0 37 35 72t69 35q9 0 11 -6q0 -20 -12.5 -65.5t-12.5 -47.5q0 -29 -55 -43q-35 0 -35 55zM475 1083q0 37 35 72t70 35q9 0 12 -6q0 -20 -12.5 -65.5t-12.5 -47.5q0 -29 -55 -43q-37 0 -37 55z" />
<glyph unicode="&#xa9;" horiz-adv-x="1636" d="M100 504q0 143 59.5 286.5t165 262t271.5 193.5t360 75q299 0 451 -144.5t152 -365.5q0 -143 -64.5 -288.5t-177.5 -266.5t-284.5 -196.5t-368.5 -75.5q-276 0 -420 147.5t-144 372.5zM178 469q0 -195 125 -319.5t377 -124.5q168 0 316.5 75.5t246.5 193.5t155.5 260 t57.5 280q0 199 -120.5 325.5t-364.5 126.5q-221 0 -407.5 -130t-286 -316.5t-99.5 -370.5zM358 535q0 217 170 402t433 185q137 0 182 -61q6 12 9 31.5t7 30t15 10.5q16 0 16 -14.5t-4 -31t-11.5 -36t-9.5 -29.5q12 -29 13 -80q-6 -70 -37 -70q-39 0 -39 33q0 27 24 105 q-43 70 -180 69q-147 0 -265 -83t-177.5 -201.5t-59.5 -239.5q0 -133 78 -220t230 -87q92 0 173 22.5t132 54t88 63.5t56.5 54.5t23.5 22.5t4 -2q6 -4 6 -10q0 -72 -91 -133.5t-208 -93t-215 -31.5q-180 0 -271.5 96t-91.5 244z" />
<glyph unicode="&#xaa;" d="M12 662q0 94 56.5 254.5t138.5 290.5t143 130h6l23 17q18 20 57 20q31 0 86.5 -16.5t61.5 -16.5q8 0 21 16.5t32 16.5q51 0 51 -45q0 -18 -7 -40.5t-20.5 -52.5t-15.5 -36q-2 -4 -19.5 -12t-19.5 -14q-45 -127 -79.5 -271.5t-34.5 -177.5q0 -51 28.5 -51t70.5 34.5 t72.5 69.5t32.5 35q4 0 4 -8q0 -31 -20 -47q-2 -2 -18.5 -17.5t-26.5 -23.5t-29.5 -25.5t-34 -28t-35 -24.5t-36 -21.5t-31.5 -13.5t-31 -6q-43 0 -51 51q0 86 68 318q-274 -379 -394 -379q-49 0 -49 74zM106 719q0 -35 21 -35q43 0 152.5 125t144.5 178q51 82 94 177.5 t43 125.5q0 12 -10 13h-6q-12 0 -43 4t-49 4q-29 0 -62 -8q-51 -14 -168 -243t-117 -341z" />
<glyph unicode="&#xab;" horiz-adv-x="860" d="M174 524q0 23 98.5 163t143.5 196q16 23 39 22q14 0 14 -12q0 -14 -84 -140t-119 -173q199 -248 199 -274.5t-21 -26.5l-16 8q-25 35 -58.5 68.5t-55 51t-69.5 54.5t-65 51q-6 6 -6 12zM461 524q0 23 101.5 167.5t142.5 191.5q16 23 38 22q13 0 13 -12q0 -14 -84 -140 t-119 -173q201 -236 201 -275q0 -27 -23 -26l-16 8q-25 35 -57.5 68.5t-55 52t-70 54.5t-65.5 50q-6 6 -6 12z" />
<glyph unicode="&#xac;" horiz-adv-x="1220" d="M59 383q0 12 17 23l979 57h20q96 0 96 -17v-2l-24 -108q-2 -4 -5 -23.5t-7.5 -43t-10.5 -52.5t-12 -55.5t-12 -49t-12.5 -36t-10.5 -13.5q-18 0 -20 21q4 98 24 319l-987 -43q-31 0 -35 23z" />
<glyph unicode="&#xad;" horiz-adv-x="591" d="M47 274q0 18 10.5 33t25.5 23t30.5 14t24.5 8l9 2q14 0 15 -10q0 -12 -10 -22q106 -8 172 -9q40 0 65 2q74 2 105 4q37 0 36 -12q0 -20 -139 -39.5t-254 -19.5q-8 0 -21.5 1t-19.5 1q-2 0 -8 -1t-10 -1q-31 0 -31 26z" />
<glyph unicode="&#xae;" horiz-adv-x="1306" d="M258 901q0 150 115.5 273.5t300.5 123.5q143 0 217 -70.5t74 -176.5q0 -147 -123.5 -274.5t-309.5 -127.5q-135 0 -204.5 72t-69.5 180zM299 885q0 -94 60.5 -153.5t181.5 -59.5q109 0 200 65q-8 -2 -34 -2q-37 2 -96.5 54.5t-98.5 113.5l-16 27q-4 -14 -13.5 -65.5 t-19.5 -82t-23 -30.5q-18 0 -18 8q0 20 6 47t21.5 72t23.5 71q-14 18 -14 22.5t20 10.5q20 70 66 182q10 80 63 80q14 0 15 -6q0 -4 -8.5 -18.5t-10.5 -18.5q6 0 41 -2t53.5 -5t44 -11t38 -23.5t12.5 -40.5q0 -88 -77 -128t-171 -40q-20 0 -21 -4q0 -6 8 -12q6 -8 33 -41 t42.5 -51.5t40 -43t45 -36.5t36.5 -12q4 0 10 1t9 1q8 0 10 -2q72 57 112.5 142t40.5 167q0 96 -58 156.5t-173 60.5q-158 0 -269.5 -127t-111.5 -266zM510 975q12 -4 45 -4q61 0 118 28.5t77 85.5q4 10 4 29q0 41 -41 54.5t-117 17.5h-2q-39 -59 -84 -211z" />
<glyph unicode="&#xaf;" horiz-adv-x="466" d="M45 872q0 18 52.5 32t105.5 14q70 0 156.5 -11.5t86.5 -25.5q0 -10 -20 -15.5t-33 -5.5h-297q-51 0 -51 12z" />
<glyph unicode="&#xb0;" horiz-adv-x="579" d="M133 831.5q0 71.5 52.5 124t124 52.5t123.5 -52.5t52 -124t-52 -124t-123.5 -52.5t-124 52.5t-52.5 124zM178 831.5q0 -53.5 39 -92.5t92 -39t92 39t39 92.5t-39 92.5t-92 39t-92 -39t-39 -92.5z" />
<glyph unicode="&#xb1;" horiz-adv-x="776" d="M150 61q0 33 22.5 50.5t38.5 17.5q12 0 12 -10q0 -8 -4 -17q20 0 103.5 -2t130.5 -2q80 0 104 4v2h16q6 0 43 -4q18 -3 19 -6q0 -14 -153.5 -35.5t-254.5 -21.5q-31 0 -43 2q-2 0 -7 -1t-7 -1q-20 0 -20 24zM189 529q-1 1 0 4.5t1 5.5q0 16 17.5 30.5t42.5 16.5l203 -4 q2 8 18 61t25.5 79t26 64.5t33.5 57t36 18.5q14 0 16 -12q0 -70 -78 -270q4 0 71 2t110 2q72 0 90 -6q16 -10 16 -17q0 -14 -50 -19t-132 -9.5t-123 -10.5q-31 -119 -111 -286q-25 -51 -35 -51.5t-10 30.5q0 43 9 55q78 240 71 256q0 -4 -190 -4q-16 0 -27.5 1t-17.5 1 t-8.5 2t-3.5 3z" />
<glyph unicode="&#xb2;" horiz-adv-x="1120" d="M59 594q0 43 71 77t155 34h10q272 152 385 237q63 51 100 87t73 96.5t36 119.5q0 70 -88 70q-82 0 -205 -50.5t-199 -121.5q-4 -6 -12 -6q-12 0 -12 16q0 8 8 14q104 90 239.5 150.5t262.5 60.5q115 0 115 -96t-121 -221q-100 -106 -223.5 -188t-325.5 -183 q59 -6 191 -47t216 -41q66 0 105 22.5t39 55.5q0 45 -76 70q-8 2 -8 10t14 8q51 0 81 -34t30 -60q0 -53 -57.5 -86t-133.5 -33q-86 0 -229.5 56.5t-218.5 58.5q-18 -6 -86 -51.5t-109 -45.5q-27 0 -27 21z" />
<glyph unicode="&#xb3;" horiz-adv-x="1245" d="M4 737q0 94 90 151.5t197 57.5q14 0 14 -12t-18 -12q-72 0 -138.5 -52.5t-66.5 -130.5q0 -68 58.5 -103.5t154.5 -35.5q182 0 332.5 89t150.5 239q0 63 -52 93t-130 30q-33 0 -88 -12.5t-68 -12.5q-25 0 -24 25q0 14 10 25t27 11q72 0 147.5 16.5t140 62.5t64.5 112 q0 59 -84 59q-59 0 -147.5 -33.5t-145.5 -70.5q-4 -4 -10 -4q-8 0 -8 14q0 39 24 47q8 4 33 23.5t47.5 37t26.5 17.5q8 0 8 -10q0 -4 -17 -27q137 57 240 58q117 0 117 -93q0 -66 -79 -130.5t-155 -78.5q197 -18 197 -155q0 -158 -183.5 -261.5t-377.5 -103.5 q-129 0 -208 42t-79 128z" />
<glyph unicode="&#xb4;" horiz-adv-x="727" d="M213 1096q0 18 93 92t208 149q10 6 21 6q18 0 30.5 -17t12 -38t-16.5 -31q-20 -12 -330 -165q-4 -2 -10 -2q-8 0 -8 6z" />
<glyph unicode="&#xb5;" horiz-adv-x="681" d="M-51 -283q0 117 39 244t123 315q6 16 33.5 83t39 103t11.5 56q0 10 -4.5 19.5t-4.5 15.5q0 2 4 22q35 131 66 173.5t102 42.5q29 0 35 -19q-246 -604 -246 -633q0 -8 7 -8q8 0 49 33q205 158 360 442q2 63 39 131t109 68q22 -1 24 -19q-6 -18 -45 -122.5t-63 -176.5 q-72 -207 -107 -405l-3 -19q-3 -18 -6 -28t-11 -27.5t-17.5 -29t-27 -19.5t-37.5 -8q-27 0 -27 22q0 6 6 17q27 49 140 489q-94 -135 -235.5 -297t-235.5 -196q-45 -127 -46 -275q0 -178 109 -180q37 -2 37 -18q0 -25 -53 -25q-164 0 -164 229z" />
<glyph unicode="&#xb6;" horiz-adv-x="847" d="M154 1036q0 117 63.5 203t177.5 86q25 0 39 -2q33 -8 77 -31.5t44 -50.5q0 -14 -16 -14q-6 0 -16.5 2t-12.5 2q-8 0 -8 -195q-18 -621 -19 -1077v-55q0 -6 -22.5 -22.5t-38.5 -16.5q-14 0 -14 20q0 86 19 399.5t19 516.5q-49 -20 -96 -21q-92 0 -144 76t-52 180z M549 -115q0 31 9 176.5t11 200.5q14 602 15 772q0 55 -2 164t-2 162q0 55 18 55q12 0 36.5 -30.5t24.5 -59.5l-8 -31q-27 -578 -26 -1335v-55q0 -6 -22.5 -22.5t-39.5 -16.5q-14 0 -14 20z" />
<glyph unicode="&#xb7;" horiz-adv-x="559" d="M219 606q0 43 42 84t83 41q9 0 12 -6q0 -25 -14 -77t-14 -56q0 -37 -66 -51q-43 0 -43 65z" />
<glyph unicode="&#xb8;" horiz-adv-x="458" d="M31 -551q0 18 36.5 24.5t82 7.5t82 31.5t36.5 94.5q0 29 -53 103.5t-53 115.5q0 70 39 124t104 54q23 0 25 -14q-43 -8 -68.5 -46t-25.5 -83q0 -25 59 -100t59 -132q0 -68 -53 -116t-119.5 -67t-132.5 -19q-18 0 -18 22z" />
<glyph unicode="&#xb9;" horiz-adv-x="907" d="M55 586q0 37 144 71q39 66 161.5 294.5t163.5 303.5q-86 -51 -182 -86q-2 -2 -8 -2q-12 0 -12 14.5t12 16.5q94 39 248 158l8 14q12 23 57 23q37 0 37 -19q0 -8 -2 -10l-422 -694q86 14 189 14q12 0 12 -14q0 -18 -19 -19q-27 0 -53.5 -2t-56 -9t-49 -12t-54 -17.5 t-48 -17.5t-53.5 -20.5t-50 -19.5l-2 -1l-2 -1q-18 0 -19 35z" />
<glyph unicode="&#xba;" horiz-adv-x="534" d="M43 684q0 47 8 94q10 53 37 137t70 182.5t105.5 167t125.5 68.5h14q0 29 16.5 49.5t45.5 20.5q29 -2 51.5 -120t65.5 -122q39 -6 39 -22.5t-39 -36.5q-23 -10 -47 -10q0 -240 -125 -410t-248 -170q-119 0 -119 172zM135 674q0 -100 58 -101q82 0 183 167t101 368 q-18 10 -44.5 72.5t-37.5 62.5q-63 0 -147 -187.5t-105 -295.5q-8 -47 -8 -86z" />
<glyph unicode="&#xbb;" horiz-adv-x="860" d="M174 276q0 14 83 138.5t120 175.5q-201 236 -201 274q0 27 23 27l16 -8q25 -35 58.5 -68t54 -51.5t69.5 -56t66 -50.5q6 -6 6 -12q0 -23 -101.5 -167t-142.5 -191q-18 -23 -39 -23q-12 0 -12 12zM494 276q0 14 82.5 138.5t119.5 175.5q-201 236 -200 274q0 27 22 27 l17 -8q25 -35 58.5 -68t54 -51.5t69.5 -56t65 -50.5q6 -6 6 -12q0 -23 -101 -167t-142 -191q-18 -23 -39 -23q-12 0 -12 12z" />
<glyph unicode="&#xbc;" horiz-adv-x="1910" d="M55 586q0 37 144 71q39 66 161.5 294.5t163.5 303.5q-86 -51 -182 -86q-2 -2 -8 -2q-12 0 -12 14.5t12 16.5q94 39 248 158l8 14q12 23 57 23q37 0 37 -19q0 -8 -2 -10l-422 -694q86 14 189 14q12 0 12 -14q0 -18 -19 -19q-27 0 -53.5 -2t-56 -9t-49 -12t-54 -17.5 t-48 -17.5t-53.5 -20.5t-50 -19.5l-2 -1l-2 -1q-18 0 -19 35zM449 293q0 72 190 258t382.5 338.5t211.5 152.5q17 0 29 -6l6 -12q0 -8 -13 -16q-223 -168 -490 -409t-267 -296q0 -10 9 -18l9 -9q0 -14 -33 -14q-35 0 -34 31zM952 350q0 14 7.5 23.5t26 16.5t28.5 9t39 9 q575 285 673 415q12 8 23 8q45 0 45 -22q0 -2 -2 -4q-35 -47 -104.5 -135t-124 -160t-99.5 -139q86 -31 156 -31q37 0 69.5 22.5t32.5 65.5q0 6 -2 16.5t-2 14.5q0 10 13 10q18 0 30.5 -31.5t12.5 -48.5q0 -80 -160 -80q-63 0 -170 25q-6 -10 -32 -51t-43 -71t-33.5 -68 t-16.5 -58v-4q86 10 158 10q12 0 12 -14q0 -18 -19 -19q-25 0 -50 -3t-43.5 -5t-49.5 -11t-42 -12t-47 -16.5t-41 -15.5t-48 -20l-43 -17h-4q-18 0 -19 35q0 20 62.5 45t111.5 33l27 4v14q0 74 113 256q-94 27 -164 27q-90 0 -244 -58h-10q-27 0 -27 35zM1147 420q66 4 88 4 q66 0 180 -37q8 12 72.5 111.5t109.5 154.5l31 39q-172 -114 -481 -272z" />
<glyph unicode="&#xbd;" horiz-adv-x="2078" d="M55 586q0 37 144 71q39 66 161.5 294.5t163.5 303.5q-86 -51 -182 -86q-2 -2 -8 -2q-12 0 -12 14.5t12 16.5q94 39 248 158l8 14q12 23 57 23q37 0 37 -19q0 -8 -2 -10l-422 -694q86 14 189 14q12 0 12 -14q0 -18 -19 -19q-27 0 -53.5 -2t-56 -9t-49 -12t-54 -17.5 t-48 -17.5t-53.5 -20.5t-50 -19.5l-2 -1l-2 -1q-18 0 -19 35zM657 293q0 72 190.5 258t383 338.5t211.5 152.5q16 0 28 -6l7 -12q0 -8 -13 -16q-223 -168 -490 -409t-267 -296q0 -10 9 -18l9 -9q0 -14 -33 -14q-35 0 -35 31zM999 12q0 43 71 77t155 34h10q272 152 385 237 q63 51 100 87t73 96.5t36 120.5q0 70 -88 69q-82 0 -205 -50t-199 -122q-4 -6 -12 -6q-12 0 -12 16q0 8 8 15q104 90 239.5 150.5t262.5 60.5q115 0 115 -96.5t-121 -221.5q-100 -106 -223.5 -188t-325.5 -182q59 -6 191 -47.5t216 -41.5q66 0 105 23t39 55q0 45 -76 70 q-8 2 -8 10t14 8q51 0 81 -33.5t30 -60.5q0 -53 -57.5 -86t-133.5 -33q-86 0 -229.5 56.5t-218.5 58.5q-18 -6 -86 -51t-109 -45q-27 0 -27 20z" />
<glyph unicode="&#xbe;" horiz-adv-x="2107" d="M4 737q0 94 90 151.5t197 57.5q14 0 14 -12t-18 -12q-72 0 -138.5 -52.5t-66.5 -130.5q0 -68 58.5 -103.5t154.5 -35.5q182 0 332.5 89t150.5 239q0 63 -52 93t-130 30q-33 0 -88 -12.5t-68 -12.5q-25 0 -24 25q0 14 10 25t27 11q72 0 147.5 16.5t140 62.5t64.5 112 q0 59 -84 59q-59 0 -147.5 -33.5t-145.5 -70.5q-4 -4 -10 -4q-8 0 -8 14q0 39 24 47q8 4 33 23.5t47.5 37t26.5 17.5q8 0 8 -10q0 -4 -17 -27q137 57 240 58q117 0 117 -93q0 -66 -79 -130.5t-155 -78.5q197 -18 197 -155q0 -158 -183.5 -261.5t-377.5 -103.5 q-129 0 -208 42t-79 128zM711 293q0 72 190.5 258t383 338.5t210.5 152.5q17 0 29 -6l6 -12q0 -8 -12 -16q-223 -168 -490.5 -409t-267.5 -296q0 -10 9 -18l9 -9q0 -14 -33 -14q-35 0 -34 31zM1157 350q0 14 7 23.5t25.5 16.5t29 9t38.5 9q575 285 674 415q12 8 23 8 q45 0 45 -22q0 -2 -2 -4q-35 -47 -104.5 -135t-124 -160t-99.5 -139q86 -31 156 -31q37 0 69.5 22.5t32.5 65.5q0 6 -2 16.5t-2 14.5q0 10 12 10q18 0 30.5 -31.5t12.5 -48.5q0 -80 -159 -80q-63 0 -170 25q-6 -10 -32 -51t-43.5 -71t-33.5 -68t-16 -58v-4q86 10 157 10 q12 0 13 -14q0 -18 -19 -19q-25 0 -50.5 -3t-43.5 -5t-49 -11t-42 -12t-47 -16.5t-41 -15.5t-48 -20l-43 -17h-4q-18 0 -19 35q0 20 62.5 45t111.5 33l27 4v14q0 74 113 256q-94 27 -164 27q-90 0 -244 -58h-10q-27 0 -27 35zM1352 420q66 4 88 4q66 0 180 -37 q8 12 72.5 111.5t109.5 154.5l31 39q-172 -114 -481 -272z" />
<glyph unicode="&#xbf;" horiz-adv-x="950" d="M-141 -295q0 92 93 197.5t185 170t307 202.5q17 10 25 16q47 29 72.5 64.5t48 94t26.5 64.5h2q10 14 23 14q14 0 25.5 -18t11.5 -47q0 -63 -49 -123q-29 -35 -139.5 -105.5t-217 -138t-193.5 -170t-87 -205.5q0 -70 54 -111.5t167 -41.5q166 0 296 78t130 198 q0 57 -16.5 81t-33 27t-16.5 9q0 33 48 33q45 0 83.5 -42t38.5 -102q1 -53 -38 -106q-80 -109 -246 -182.5t-322 -73.5q-123 0 -200.5 53t-77.5 164zM666 711q25 133 39 154q17 26 57 26q33 0 33 -78v-2q0 -35 -49.5 -69.5t-73.5 -34.5q-6 0 -6 4z" />
<glyph unicode="&#xc0;" horiz-adv-x="1267" d="M82 0l4 33q41 229 207 520q-16 0 -47 -1t-56 -1q-20 0 -20 14.5t17.5 31.5t37.5 17h103q193 311 503 646q-12 16 -12 32q0 23 22.5 42.5t67.5 19.5t45 -41q0 -14 -6 -29q37 -94 90.5 -300t73.5 -368q68 -2 67.5 -22.5t-61.5 -30.5q-2 0 14.5 -106.5t33 -236.5t16.5 -173 q0 -20 -30 -37.5t-56 -17.5q-25 0 -25 16v25q0 78 -16.5 271.5t-24.5 254.5q-627 -6 -655 -6q-182 -334 -213 -545q-2 -23 -41 -22q-35 0 -38 7q-1 3 -1 7zM403 610l621 4q-39 299 -145 609q-129 -133 -264.5 -303t-211.5 -310zM688 1657q0 20 12.5 37.5t30.5 17.5 q8 0 21 -6q113 -76 206 -149.5t93 -92.5q0 -6 -6.5 -6t-10.5 2q-309 154 -329 166q-16 8 -17 31z" />
<glyph unicode="&#xc1;" horiz-adv-x="1267" d="M82 0l4 33q41 229 207 520q-16 0 -47 -1t-56 -1q-20 0 -20 14.5t17.5 31.5t37.5 17h103q193 311 503 646q-12 16 -12 32q0 23 22.5 42.5t67.5 19.5t45 -41q0 -14 -6 -29q37 -94 90.5 -300t73.5 -368q68 -2 67.5 -22.5t-61.5 -30.5q-2 0 14.5 -106.5t33 -236.5t16.5 -173 q0 -20 -30 -37.5t-56 -17.5q-25 0 -25 16v25q0 78 -16.5 271.5t-24.5 254.5q-627 -6 -655 -6q-182 -334 -213 -545q-2 -23 -41 -22q-35 0 -38 7q-1 3 -1 7zM403 610l621 4q-39 299 -145 609q-129 -133 -264.5 -303t-211.5 -310zM774 1462q0 18 93.5 92t207.5 150q10 6 21 6 q18 0 30.5 -17.5t12 -38t-16.5 -30.5q-20 -12 -329 -166q-4 -2 -11 -2q-8 0 -8 6z" />
<glyph unicode="&#xc2;" horiz-adv-x="1267" d="M82 0l4 33q41 229 207 520q-16 0 -47 -1t-56 -1q-20 0 -20 14.5t17.5 31.5t37.5 17h103q193 311 503 646q-12 16 -12 32q0 23 22.5 42.5t67.5 19.5t45 -41q0 -14 -6 -29q37 -94 90.5 -300t73.5 -368q68 -2 67.5 -22.5t-61.5 -30.5q-2 0 14.5 -106.5t33 -236.5t16.5 -173 q0 -20 -30 -37.5t-56 -17.5q-25 0 -25 16v25q0 78 -16.5 271.5t-24.5 254.5q-627 -6 -655 -6q-182 -334 -213 -545q-2 -23 -41 -22q-35 0 -38 7q-1 3 -1 7zM403 610l621 4q-39 299 -145 609q-129 -133 -264.5 -303t-211.5 -310zM700 1436q0 8 9 18q20 25 128.5 126 t127.5 106q10 -4 69.5 -97.5t77.5 -128.5q2 -4 2 -14q0 -16 -10 -16q-2 0 -6 4q-27 23 -83.5 84t-76.5 92q-35 -31 -131 -105.5t-102 -74.5q-4 0 -5 6z" />
<glyph unicode="&#xc3;" horiz-adv-x="1267" d="M82 0l4 33q41 229 207 520q-16 0 -47 -1t-56 -1q-20 0 -20 14.5t17.5 31.5t37.5 17h103q193 311 503 646q-12 16 -12 32q0 23 22.5 42.5t67.5 19.5t45 -41q0 -14 -6 -29q37 -94 90.5 -300t73.5 -368q68 -2 67.5 -22.5t-61.5 -30.5q-2 0 14.5 -106.5t33 -236.5t16.5 -173 q0 -20 -30 -37.5t-56 -17.5q-25 0 -25 16v25q0 78 -16.5 271.5t-24.5 254.5q-627 -6 -655 -6q-182 -334 -213 -545q-2 -23 -41 -22q-35 0 -38 7q-1 3 -1 7zM403 610l621 4q-39 299 -145 609q-129 -133 -264.5 -303t-211.5 -310zM692 1522q0 14 34 43.5t54 40.5q33 20 74 20 q35 0 98.5 -21.5t96.5 -21.5q49 0 86 43q12 0 12 -8q0 -39 -57.5 -70.5t-79.5 -31.5q-37 0 -102.5 27.5t-100.5 27.5t-68.5 -26.5t-42.5 -26.5q-4 0 -4 4z" />
<glyph unicode="&#xc4;" horiz-adv-x="1267" d="M82 0l4 33q41 229 207 520q-16 0 -47 -1t-56 -1q-20 0 -20 14.5t17.5 31.5t37.5 17h103q193 311 503 646q-12 16 -12 32q0 23 22.5 42.5t67.5 19.5t45 -41q0 -14 -6 -29q37 -94 90.5 -300t73.5 -368q68 -2 67.5 -22.5t-61.5 -30.5q-2 0 14.5 -106.5t33 -236.5t16.5 -173 q0 -20 -30 -37.5t-56 -17.5q-25 0 -25 16v25q0 78 -16.5 271.5t-24.5 254.5q-627 -6 -655 -6q-182 -334 -213 -545q-2 -23 -41 -22q-35 0 -38 7q-1 3 -1 7zM403 610l621 4q-39 299 -145 609q-129 -133 -264.5 -303t-211.5 -310zM739 1599q0 37 35 72t70 35q8 0 10 -6 q0 -20 -12.5 -65.5t-12.5 -47.5q0 -29 -55 -43q-35 0 -35 55zM999 1599q0 37 35 72t70 35q9 0 12 -6q0 -20 -12 -65.5t-12 -47.5q0 -29 -56 -43q-37 0 -37 55z" />
<glyph unicode="&#xc5;" horiz-adv-x="1267" d="M82 0l4 33q41 229 207 520q-16 0 -47 -1t-56 -1q-20 0 -20 14.5t17.5 31.5t37.5 17h103q193 311 503 646q-12 12 -12 32q0 27 25 43q-47 16 -47 72q0 78 60.5 146.5t123.5 68.5q39 0 63.5 -29.5t24.5 -70.5q0 -57 -37 -107.5t-90 -73.5q10 -14 10 -32q0 -8 -4 -25 q37 -94 90.5 -300t73.5 -368q68 -2 68 -22.5t-62 -30.5q-2 0 14.5 -106.5t33 -236.5t16.5 -173q0 -20 -30 -37.5t-56 -17.5q-25 0 -25 16v25q0 78 -16.5 271.5t-24.5 254.5q-627 -6 -655 -6q-182 -334 -213 -545q-2 -23 -41 -22q-35 0 -38 7q-1 3 -1 7zM403 610l621 4 q-39 299 -145 609q-129 -133 -264.5 -303t-211.5 -310zM844 1425q0 -57 59 -57q51 0 88 47.5t37 106.5q0 70 -53 69q-39 0 -85 -51t-46 -115z" />
<glyph unicode="&#xc6;" horiz-adv-x="1966" d="M37 -8q0 10 14 41q100 227 346 520q-16 0 -47 -1t-55 -1q-16 0 -16 10q0 14 22.5 33.5t44.5 19.5h103q397 442 665 666h-27q-45 0 -45 16q0 8 6.5 13.5t22.5 9.5t28.5 5t40 3t44.5 4q18 2 48 35t70.5 33t40.5 -31l-18 -37h35q29 0 86 -1t133 -1q33 0 149.5 1t200.5 1 q31 0 31 -31q0 -23 -21.5 -56.5t-42.5 -33.5q-8 0 -27.5 26t-41.5 28q-35 4 -174 4q-18 0 -51 -1t-46 -1q-10 0 -251 4q-14 -41 -59.5 -301t-53.5 -351q410 0 551 7q12 0 12 -13q0 -14 -20.5 -32.5t-57.5 -24.5h-495q-10 -39 -26.5 -211t-16.5 -252q0 -23 2 -29q27 0 216 -1 t349 -1q132 0 236 33h2q8 0 8 -20q0 -25 -16.5 -49.5t-45.5 -24.5q-133 0 -406.5 -1t-422.5 -1q-35 0 -35 25l6 53q34 348 55 483q-70 0 -191.5 -2t-223 -3t-193.5 -1q-274 -334 -362 -545q-6 -23 -45 -22q-35 0 -35 6zM528 614h566q54 412 120 668q-98 -55 -326.5 -280.5 t-359.5 -387.5z" />
<glyph unicode="&#xc7;" horiz-adv-x="1400" d="M121 561q0 330 209 558.5t571 228.5q358 0 359 -250q0 -61 -24 -94t-58 -33q-43 0 -43 39q0 25 20.5 65.5t20.5 57.5q0 72 -85 117.5t-186 45.5q-305 0 -494.5 -222t-189.5 -519q0 -227 122 -384t351 -157q119 0 224.5 34t174 82t119 96t78 82t33.5 34q10 0 10 -31 q0 -104 -110.5 -187t-249.5 -120t-260 -37h-31q-41 -35 -41 -92q0 -23 58.5 -89.5t58.5 -117.5q0 -86 -97.5 -133t-201.5 -47q-18 0 -19 20q0 16 37 22.5t80 7.5t80 27.5t37 84.5q0 25 -52.5 91t-52.5 103q0 84 52 129q-244 25 -372 180.5t-128 407.5z" />
<glyph unicode="&#xc8;" horiz-adv-x="1181" d="M113 10q0 16 24.5 41t46.5 29q-2 14 -2 53q0 164 37 481h-26q-20 0 -20.5 14.5t16 31t36.5 18.5q47 389 97 571h-109q-45 2 -45 17q0 10 26.5 21t59.5 11h80q12 68 40.5 93.5t84.5 25.5q31 0 30 -20q0 -8 -7 -25.5t-17 -39.5l-14 -32q6 0 34.5 -1t86.5 -1h133 q33 0 149.5 1t200.5 1q31 0 30 -30q0 -23 -21.5 -56.5t-41.5 -33.5q-8 0 -27.5 25.5t-42.5 27.5q-35 4 -174 4q-20 0 -51 -1t-45 -1q-10 0 -252 4q-70 -238 -111 -561q463 0 586 6q12 0 13 -12q0 -14 -20.5 -32.5t-57.5 -25.5h-529q-25 -236 -24 -397q0 -88 10 -154 q27 0 200 -1t332 -1q131 0 236 33h2q8 0 8 -20q0 -25 -16.5 -49.5t-44.5 -24.5q-43 0 -139.5 -1t-145.5 -1q-616 0 -616 12zM514 1686q0 20 12.5 37.5t30.5 17.5q8 0 21 -6q113 -76 206 -150t93 -92q0 -6 -6.5 -6t-10.5 2q-310 154 -330 166q-16 8 -16 31z" />
<glyph unicode="&#xc9;" horiz-adv-x="1181" d="M113 10q0 16 24.5 41t46.5 29q-2 14 -2 53q0 164 37 481h-26q-20 0 -20.5 14.5t16 31t36.5 18.5q47 389 97 571h-109q-45 2 -45 17q0 10 26.5 21t59.5 11h80q12 68 40.5 93.5t84.5 25.5q31 0 30 -20q0 -8 -7 -25.5t-17 -39.5l-14 -32q6 0 34.5 -1t86.5 -1h133 q33 0 149.5 1t200.5 1q31 0 30 -30q0 -23 -21.5 -56.5t-41.5 -33.5q-8 0 -27.5 25.5t-42.5 27.5q-35 4 -174 4q-20 0 -51 -1t-45 -1q-10 0 -252 4q-70 -238 -111 -561q463 0 586 6q12 0 13 -12q0 -14 -20.5 -32.5t-57.5 -25.5h-529q-25 -236 -24 -397q0 -88 10 -154 q27 0 200 -1t332 -1q131 0 236 33h2q8 0 8 -20q0 -25 -16.5 -49.5t-44.5 -24.5q-43 0 -139.5 -1t-145.5 -1q-616 0 -616 12zM565 1479q0 18 93.5 92t207.5 149q10 6 21 6q18 0 30.5 -17t12 -38t-16.5 -31q-20 -12 -329 -165q-4 -2 -11 -2q-8 0 -8 6z" />
<glyph unicode="&#xca;" horiz-adv-x="1181" d="M113 10q0 16 24.5 41t46.5 29q-2 14 -2 53q0 164 37 481h-26q-20 0 -20.5 14.5t16 31t36.5 18.5q47 389 97 571h-109q-45 2 -45 17q0 10 26.5 21t59.5 11h80q12 68 40.5 93.5t84.5 25.5q31 0 30 -20q0 -8 -7 -25.5t-17 -39.5l-14 -32q6 0 34.5 -1t86.5 -1h133 q33 0 149.5 1t200.5 1q31 0 30 -30q0 -23 -21.5 -56.5t-41.5 -33.5q-8 0 -27.5 25.5t-42.5 27.5q-35 4 -174 4q-20 0 -51 -1t-45 -1q-10 0 -252 4q-70 -238 -111 -561q463 0 586 6q12 0 13 -12q0 -14 -20.5 -32.5t-57.5 -25.5h-529q-25 -236 -24 -397q0 -88 10 -154 q27 0 200 -1t332 -1q131 0 236 33h2q8 0 8 -20q0 -25 -16.5 -49.5t-44.5 -24.5q-43 0 -139.5 -1t-145.5 -1q-616 0 -616 12zM492 1436q0 8 8 18q20 25 128.5 126t127.5 106q10 -4 69.5 -97.5t77.5 -128.5q2 -4 2 -14q0 -16 -10 -16q-2 0 -6 4q-27 23 -83 84t-77 92 q-35 -31 -131 -105.5t-102 -74.5q-4 0 -4 6z" />
<glyph unicode="&#xcb;" horiz-adv-x="1181" d="M113 10q0 16 24.5 41t46.5 29q-2 14 -2 53q0 164 37 481h-26q-20 0 -20.5 14.5t16 31t36.5 18.5q47 389 97 571h-109q-45 2 -45 17q0 10 26.5 21t59.5 11h80q12 68 40.5 93.5t84.5 25.5q31 0 30 -20q0 -8 -7 -25.5t-17 -39.5l-14 -32q6 0 34.5 -1t86.5 -1h133 q33 0 149.5 1t200.5 1q31 0 30 -30q0 -23 -21.5 -56.5t-41.5 -33.5q-8 0 -27.5 25.5t-42.5 27.5q-35 4 -174 4q-20 0 -51 -1t-45 -1q-10 0 -252 4q-70 -238 -111 -561q463 0 586 6q12 0 13 -12q0 -14 -20.5 -32.5t-57.5 -25.5h-529q-25 -236 -24 -397q0 -88 10 -154 q27 0 200 -1t332 -1q131 0 236 33h2q8 0 8 -20q0 -25 -16.5 -49.5t-44.5 -24.5q-43 0 -139.5 -1t-145.5 -1q-616 0 -616 12zM569 1599q0 37 35 72t70 35q6 0 10 -6q0 -20 -12.5 -65.5t-12.5 -47.5q0 -29 -55 -43q-35 0 -35 55zM829 1599q0 37 35 72t70 35q9 0 12 -6 q0 -20 -12 -65.5t-12 -47.5q0 -29 -56 -43q-37 0 -37 55z" />
<glyph unicode="&#xcc;" horiz-adv-x="937" d="M94.5 14.5q-0.5 14.5 17 31.5t38.5 17h227q72 764 139 1113v61q0 8 2 20.5t2 20.5h-237q-20 0 -20.5 14.5t17 31.5t37.5 17h224q35 76 129 76q31 0 30 -20v-4l-22 -50q178 0 264 5q12 0 12 -13q0 -14 -20.5 -32.5t-56.5 -24.5h-224v-4q-78 -217 -129 -612.5t-51 -565.5 q0 -23 6 -33q246 4 295 7q12 0 12 -13q0 -14 -20.5 -32.5t-56.5 -24.5h-242q-20 -16 -45 -16q-27 0 -39 16h-268q-20 0 -20.5 14.5zM438 1686q0 20 12.5 37.5t30.5 17.5q8 0 21 -6q113 -76 206 -150t93 -92q0 -6 -6.5 -6t-10.5 2q-309 154 -329 166q-16 8 -17 31z" />
<glyph unicode="&#xcd;" horiz-adv-x="937" d="M94.5 14.5q-0.5 14.5 17 31.5t38.5 17h227q72 764 139 1113v61q0 8 2 20.5t2 20.5h-237q-20 0 -20.5 14.5t17 31.5t37.5 17h224q35 76 129 76q31 0 30 -20v-4l-22 -50q178 0 264 5q12 0 12 -13q0 -14 -20.5 -32.5t-56.5 -24.5h-224v-4q-78 -217 -129 -612.5t-51 -565.5 q0 -23 6 -33q246 4 295 7q12 0 12 -13q0 -14 -20.5 -32.5t-56.5 -24.5h-242q-20 -16 -45 -16q-27 0 -39 16h-268q-20 0 -20.5 14.5zM494 1493q0 18 93 92t208 150q8 6 20 6q18 0 30.5 -17.5t12.5 -38t-16 -30.5q-20 -12 -330 -166q-4 -2 -10 -2q-8 0 -8 6z" />
<glyph unicode="&#xce;" horiz-adv-x="937" d="M94.5 14.5q-0.5 14.5 17 31.5t38.5 17h227q72 764 139 1113v61q0 8 2 20.5t2 20.5h-237q-20 0 -20.5 14.5t17 31.5t37.5 17h224q35 76 129 76q31 0 30 -20v-4l-22 -50q178 0 264 5q12 0 12 -13q0 -14 -20.5 -32.5t-56.5 -24.5h-224v-4q-78 -217 -129 -612.5t-51 -565.5 q0 -23 6 -33q246 4 295 7q12 0 12 -13q0 -14 -20.5 -32.5t-56.5 -24.5h-242q-20 -16 -45 -16q-27 0 -39 16h-268q-20 0 -20.5 14.5zM418 1436q0 8 8 18q20 25 129 126t127 106q10 -4 69.5 -97.5t77.5 -128.5q2 -4 2 -14q0 -16 -10 -16q-2 0 -6 4q-27 23 -83 84t-77 92 q-35 -31 -131 -105.5t-102 -74.5q-4 0 -4 6z" />
<glyph unicode="&#xcf;" horiz-adv-x="937" d="M94.5 14.5q-0.5 14.5 17 31.5t38.5 17h227q72 764 139 1113v61q0 8 2 20.5t2 20.5h-237q-20 0 -20.5 14.5t17 31.5t37.5 17h224q35 76 129 76q31 0 30 -20v-4l-22 -50q178 0 264 5q12 0 12 -13q0 -14 -20.5 -32.5t-56.5 -24.5h-224v-4q-78 -217 -129 -612.5t-51 -565.5 q0 -23 6 -33q246 4 295 7q12 0 12 -13q0 -14 -20.5 -32.5t-56.5 -24.5h-242q-20 -16 -45 -16q-27 0 -39 16h-268q-20 0 -20.5 14.5zM477 1599q0 37 35 72t70 35q8 0 10 -6q0 -20 -12.5 -65.5t-12.5 -47.5q0 -29 -55 -43q-35 0 -35 55zM737 1599q0 37 35 72t70 35q9 0 12 -6 q0 -20 -12.5 -65.5t-12.5 -47.5q0 -29 -55 -43q-37 0 -37 55z" />
<glyph unicode="&#xd0;" horiz-adv-x="1587" d="M25 506q0 35 88 35q41 0 98 -4q33 401 108 698h-16q-20 0 -61 -6t-45 -6q-14 0 -15 20q0 23 20.5 45.5t53.5 22.5h80q10 55 34.5 80.5t78.5 25.5q28 1 28 -22q-16 -37 -31 -78q29 2 91 2q127 0 255 -21.5t253.5 -69.5t223 -118t157 -174.5t59.5 -230.5 q0 -115 -53.5 -220.5t-142.5 -182.5t-200.5 -139.5t-232.5 -101t-232.5 -59t-205.5 -20.5q-104 0 -166 24.5t-62 61.5q0 16 15 16q6 0 12 -2q-16 74 -16 209q0 84 6 176q-39 -2 -109 -2q-29 0 -51 11t-22 30zM291 342q0 -45 4 -127q4 -98 40 -138t144 -40q188 0 429 112.5 t349 253.5q152 195 152 369q0 119 -80 211t-212 147.5t-288.5 83t-322.5 27.5q-51 0 -80 -2q-102 -350 -127 -702q240 0 240 -13q0 -27 -244 -51q-4 -90 -4 -131z" />
<glyph unicode="&#xd1;" horiz-adv-x="1449" d="M135 887q0 221 60.5 351t175.5 130q35 0 92 -29q8 14 24 15q12 0 22.5 -12.5t10.5 -30.5v-11q143 -117 303 -388t262 -523q41 375 117 735q0 2 8.5 47.5t14.5 62.5t19 50t33.5 47.5t49.5 14.5q31 0 31 -21q0 -16 -22.5 -66.5t-24.5 -56.5q-66 -182 -115 -440t-70 -475 l25 -84q4 -16 10 -80q0 -55 -21.5 -97t-52 -42t-30.5 39q0 43 14 210q-129 315 -265 562t-321 436l-4 -12q-61 -178 -124.5 -500t-63.5 -559q0 -92 8 -160q-2 -16 -20 -16q-78 0 -78 98q0 66 12 151q45 397 225 1039q-51 33 -88 33q-76 0 -120 -124t-57 -249t-15 -125 q-25 0 -25 80zM655 1540q0 14 34 44t54 40q33 20 74 21q35 0 98.5 -21.5t96.5 -21.5q49 0 86 43q12 -1 12 -9q0 -39 -57.5 -70.5t-79.5 -31.5q-37 0 -102.5 27.5t-100.5 27.5t-68.5 -26.5t-42.5 -26.5q-4 0 -4 4z" />
<glyph unicode="&#xd2;" horiz-adv-x="1630" d="M127 508q0 166 68.5 328.5t203.5 287.5q-25 -12 -60.5 -29.5t-56 -27.5t-24.5 -10q-18 0 -18 18q0 20 83 61.5t154 67.5q106 104 241.5 172t272.5 68q143 0 144 -78q0 -45 -48 -109q447 -65 447 -497q0 -180 -71.5 -334t-188.5 -253t-262.5 -154.5t-298.5 -55.5 q-287 0 -436.5 153.5t-149.5 391.5zM225 537q0 -225 127 -375t375 -150q123 0 247 51.5t228.5 142.5t171 235.5t66.5 312.5q0 180 -104.5 311t-268.5 152q-31 -37 -51 -37q-10 0 -10 8q0 16 18 33q-29 2 -84 2q-211 -1 -422 -58q-150 -113 -221.5 -279.5t-71.5 -348.5z M584 1235q121 37 301 37q96 0 168 -8q18 43 18 69q0 49 -78 49q-98 0 -214.5 -43t-194.5 -104zM727 1686q0 20 12.5 37.5t30.5 17.5q8 0 21 -6q113 -76 206 -150t93 -92q0 -6 -6.5 -6t-10.5 2q-310 154 -330 166q-16 8 -16 31z" />
<glyph unicode="&#xd3;" horiz-adv-x="1630" d="M127 508q0 166 68.5 328.5t203.5 287.5q-25 -12 -60.5 -29.5t-56 -27.5t-24.5 -10q-18 0 -18 18q0 20 83 61.5t154 67.5q106 104 241.5 172t272.5 68q143 0 144 -78q0 -45 -48 -109q447 -65 447 -497q0 -180 -71.5 -334t-188.5 -253t-262.5 -154.5t-298.5 -55.5 q-287 0 -436.5 153.5t-149.5 391.5zM225 537q0 -225 127 -375t375 -150q123 0 247 51.5t228.5 142.5t171 235.5t66.5 312.5q0 180 -104.5 311t-268.5 152q-31 -37 -51 -37q-10 0 -10 8q0 16 18 33q-29 2 -84 2q-211 -1 -422 -58q-150 -113 -221.5 -279.5t-71.5 -348.5z M584 1235q121 37 301 37q96 0 168 -8q18 43 18 69q0 49 -78 49q-98 0 -214.5 -43t-194.5 -104zM815 1493q0 18 93 92t208 150q10 6 21 6q18 0 30.5 -17.5t12 -38t-16.5 -30.5q-20 -12 -329 -166q-4 -2 -11 -2q-8 0 -8 6z" />
<glyph unicode="&#xd4;" horiz-adv-x="1630" d="M127 508q0 166 68.5 328.5t203.5 287.5q-25 -12 -60.5 -29.5t-56 -27.5t-24.5 -10q-18 0 -18 18q0 20 83 61.5t154 67.5q106 104 241.5 172t272.5 68q143 0 144 -78q0 -45 -48 -109q447 -65 447 -497q0 -180 -71.5 -334t-188.5 -253t-262.5 -154.5t-298.5 -55.5 q-287 0 -436.5 153.5t-149.5 391.5zM225 537q0 -225 127 -375t375 -150q123 0 247 51.5t228.5 142.5t171 235.5t66.5 312.5q0 180 -104.5 311t-268.5 152q-31 -37 -51 -37q-10 0 -10 8q0 16 18 33q-29 2 -84 2q-211 -1 -422 -58q-150 -113 -221.5 -279.5t-71.5 -348.5z M584 1235q121 37 301 37q96 0 168 -8q18 43 18 69q0 49 -78 49q-98 0 -214.5 -43t-194.5 -104zM764 1495q0 8 8 18q20 25 129 124.5t127 103.5q10 -4 69.5 -96.5t78.5 -124.5q2 -4 2 -15q0 -16 -11 -16q-2 0 -6 4q-27 23 -83 84t-77 92q-35 -31 -131 -105.5t-102 -74.5 q-4 0 -4 6z" />
<glyph unicode="&#xd5;" horiz-adv-x="1630" d="M127 508q0 166 68.5 328.5t203.5 287.5q-25 -12 -60.5 -29.5t-56 -27.5t-24.5 -10q-18 0 -18 18q0 20 83 61.5t154 67.5q106 104 241.5 172t272.5 68q143 0 144 -78q0 -45 -48 -109q447 -65 447 -497q0 -180 -71.5 -334t-188.5 -253t-262.5 -154.5t-298.5 -55.5 q-287 0 -436.5 153.5t-149.5 391.5zM225 537q0 -225 127 -375t375 -150q123 0 247 51.5t228.5 142.5t171 235.5t66.5 312.5q0 180 -104.5 311t-268.5 152q-31 -37 -51 -37q-10 0 -10 8q0 16 18 33q-29 2 -84 2q-211 -1 -422 -58q-150 -113 -221.5 -279.5t-71.5 -348.5z M584 1235q121 37 301 37q96 0 168 -8q18 43 18 69q0 49 -78 49q-98 0 -214.5 -43t-194.5 -104zM768 1513q0 14 34 44t54 40q33 20 74 21q35 0 98.5 -21.5t95.5 -21.5q49 0 86 43q13 0 13 -8q0 -39 -57.5 -71t-80.5 -32q-37 0 -102 28t-100 28t-69 -27t-42 -27q-4 0 -4 4z " />
<glyph unicode="&#xd6;" horiz-adv-x="1630" d="M127 508q0 166 68.5 328.5t203.5 287.5q-25 -12 -60.5 -29.5t-56 -27.5t-24.5 -10q-18 0 -18 18q0 20 83 61.5t154 67.5q106 104 241.5 172t272.5 68q143 0 144 -78q0 -45 -48 -109q447 -65 447 -497q0 -180 -71.5 -334t-188.5 -253t-262.5 -154.5t-298.5 -55.5 q-287 0 -436.5 153.5t-149.5 391.5zM225 537q0 -225 127 -375t375 -150q123 0 247 51.5t228.5 142.5t171 235.5t66.5 312.5q0 180 -104.5 311t-268.5 152q-31 -37 -51 -37q-10 0 -10 8q0 16 18 33q-29 2 -84 2q-211 -1 -422 -58q-150 -113 -221.5 -279.5t-71.5 -348.5z M584 1235q121 37 301 37q96 0 168 -8q18 43 18 69q0 49 -78 49q-98 0 -214.5 -43t-194.5 -104zM801 1599q0 37 34.5 72t69.5 35q8 0 10 -6q0 -20 -12 -65.5t-12 -47.5q0 -29 -55 -43q-35 0 -35 55zM1061 1599q0 37 34.5 72t69.5 35q10 0 13 -6q0 -20 -12.5 -65.5 t-12.5 -47.5q0 -29 -55 -43q-37 0 -37 55z" />
<glyph unicode="&#xd7;" horiz-adv-x="901" d="M186 217q0 12 23.5 39t57.5 58.5t38 35.5l127 131q-74 74 -127 131q-2 2 -26.5 24.5t-42 40t-34 39t-16.5 29.5q0 14 9.5 26.5t21.5 12.5q10 0 19 -8l239 -254l152 152l24 24l36 36q11 11 32.5 29.5t37 27t25.5 8.5q8 0 9 -8q0 -29 -52 -80l-225 -230q41 -41 118 -112.5 t116.5 -114.5t39.5 -61.5t-18 -18.5q-8 0 -10 2q-16 4 -35.5 19.5t-32 26.5t-36 36t-29.5 31q-14 12 -152 149l-239 -252q-8 -8 -19 -8q-12 0 -21.5 12.5t-9.5 26.5z" />
<glyph unicode="&#xd8;" horiz-adv-x="1601" d="M127 508q0 166 68.5 328.5t203.5 287.5q-25 -12 -60.5 -29.5t-56 -27.5t-24.5 -10q-18 0 -18 18q0 20 83 61.5t154 67.5q106 104 241.5 172t272.5 68q143 0 144 -78q0 -45 -48 -109q80 -14 93 -18q184 209 206 209q12 0 20.5 -11.5t8.5 -25.5q0 -16 -24.5 -48t-74.5 -85 t-61 -66q279 -116 279 -452q0 -180 -71.5 -334t-188.5 -253t-262.5 -154.5t-298.5 -55.5q-184 0 -316 68q-70 -123 -69 -185q0 -23 14 -41l14 -18q0 -10 -18.5 -20.5t-28.5 -10.5q-49 0 -49 66q0 92 78 241q-211 147 -211 445zM225 537q0 -258 152 -402q133 231 363.5 546.5 t404.5 516.5q-37 12 -78 19q-31 -37 -51 -37q-10 0 -10 8q0 16 18 33q-29 2 -84 2q-211 -1 -422 -58q-150 -113 -221.5 -279.5t-71.5 -348.5zM432 92q119 -80 295 -80q123 0 247 51.5t228.5 142.5t171 235.5t66.5 312.5q0 133 -60.5 242.5t-162.5 168.5 q-217 -258 -439.5 -562t-345.5 -511zM584 1235q121 37 301 37q96 0 168 -8q18 43 18 69q0 49 -78 49q-98 0 -214.5 -43t-194.5 -104z" />
<glyph unicode="&#xd9;" horiz-adv-x="1323" d="M115 395q0 356 129 725q-12 2 -13 23q0 35 35 103.5t56 86.5q39 31 84 31q25 0 40 -10.5t15 -24.5q0 -10 -8 -18q-74 -68 -135.5 -281t-79.5 -375q-23 -195 -23 -286q0 -289 143 -289q150 0 416 358q125 170 203 358.5t78 323.5v45q0 76 37.5 128.5t115.5 52.5 q31 0 31 -21v-4q-92 -213 -150.5 -595t-58.5 -579q16 -23 17 -59q0 -104 -68 -104q-49 0 -49 45q39 438 67 678q-100 -195 -207.5 -341.5t-198.5 -222t-161 -110.5t-121 -35q-100 0 -147 108.5t-47 288.5zM551 1686q0 20 12 37.5t31 17.5q8 0 20 -6q113 -76 206 -150t93 -92 q0 -6 -6 -6t-10 2q-310 154 -330 166q-16 8 -16 31z" />
<glyph unicode="&#xda;" horiz-adv-x="1323" d="M115 395q0 356 129 725q-12 2 -13 23q0 35 35 103.5t56 86.5q39 31 84 31q25 0 40 -10.5t15 -24.5q0 -10 -8 -18q-74 -68 -135.5 -281t-79.5 -375q-23 -195 -23 -286q0 -289 143 -289q150 0 416 358q125 170 203 358.5t78 323.5v45q0 76 37.5 128.5t115.5 52.5 q31 0 31 -21v-4q-92 -213 -150.5 -595t-58.5 -579q16 -23 17 -59q0 -104 -68 -104q-49 0 -49 45q39 438 67 678q-100 -195 -207.5 -341.5t-198.5 -222t-161 -110.5t-121 -35q-100 0 -147 108.5t-47 288.5zM674 1493q0 18 93 92t208 150q8 6 20 6q18 0 30.5 -17.5t12.5 -38 t-16 -30.5q-20 -12 -330 -166q-4 -2 -10 -2q-8 0 -8 6z" />
<glyph unicode="&#xdb;" horiz-adv-x="1323" d="M115 395q0 356 129 725q-12 2 -13 23q0 35 35 103.5t56 86.5q39 31 84 31q25 0 40 -10.5t15 -24.5q0 -10 -8 -18q-74 -68 -135.5 -281t-79.5 -375q-23 -195 -23 -286q0 -289 143 -289q150 0 416 358q125 170 203 358.5t78 323.5v45q0 76 37.5 128.5t115.5 52.5 q31 0 31 -21v-4q-92 -213 -150.5 -595t-58.5 -579q16 -23 17 -59q0 -104 -68 -104q-49 0 -49 45q39 438 67 678q-100 -195 -207.5 -341.5t-198.5 -222t-161 -110.5t-121 -35q-100 0 -147 108.5t-47 288.5zM610 1436q0 8 8 18q20 25 129 126t127 106q10 -4 70 -97.5 t78 -128.5q2 -4 2 -14q0 -16 -10 -16q-2 0 -6 4q-27 23 -83.5 84t-76.5 92q-35 -31 -131 -105.5t-103 -74.5q-4 0 -4 6z" />
<glyph unicode="&#xdc;" horiz-adv-x="1323" d="M115 395q0 356 129 725q-12 2 -13 23q0 35 35 103.5t56 86.5q39 31 84 31q25 0 40 -10.5t15 -24.5q0 -10 -8 -18q-74 -68 -135.5 -281t-79.5 -375q-23 -195 -23 -286q0 -289 143 -289q150 0 416 358q125 170 203 358.5t78 323.5v45q0 76 37.5 128.5t115.5 52.5 q31 0 31 -21v-4q-92 -213 -150.5 -595t-58.5 -579q16 -23 17 -59q0 -104 -68 -104q-49 0 -49 45q39 438 67 678q-100 -195 -207.5 -341.5t-198.5 -222t-161 -110.5t-121 -35q-100 0 -147 108.5t-47 288.5zM633 1599q0 37 34.5 72t69.5 35q9 0 11 -6q0 -20 -12.5 -65.5 t-12.5 -47.5q0 -29 -55 -43q-35 0 -35 55zM893 1599q0 37 35 72t69 35q10 0 13 -6q0 -20 -12.5 -65.5t-12.5 -47.5q0 -29 -55 -43q-37 0 -37 55z" />
<glyph unicode="&#xdd;" horiz-adv-x="1064" d="M61 1276q0 63 93 63q25 0 55.5 -8t30.5 -20q0 -16 -25 -31.5t-25 -54.5q0 -139 189 -592q57 49 157.5 144t229.5 252t152 251q20 86 75 86q47 0 47 -41q0 -53 -215 -315q-127 -154 -422 -428q-20 -57 -41.5 -170t-25.5 -181q-4 -61 -10.5 -95t-22.5 -69.5t-48 -51 t-83 -15.5q-35 0 -35 20q1 17 58 121q102 219 102 394q0 23 -2 30q-100 262 -219 631q-14 41 -15 80zM459 1434q0 18 92 90.5t209 148.5q10 6 20 6q18 0 30.5 -16t12.5 -37t-16 -31q-20 -12 -330 -165q-4 -2 -10 -3q-8 0 -8 7z" />
<glyph unicode="&#xde;" horiz-adv-x="610" d="M-131 -446q0 100 221 716q-10 25 -10 47q0 63 61 103q190 584 217 686q0 2 -30.5 7t-30.5 17q0 23 43 39.5t43 18.5q35 94 52.5 140t30.5 72.5t15 29t17 16.5q23 23 47 22q37 0 37 -41q0 -18 -13 -47l-77 -186q125 -80 216 -257t91 -386q0 -188 -113 -307t-297 -119 q-150 0 -231 68q-53 -104 -104.5 -292t-51.5 -239q0 -16 7 -38.5t7 -35.5q0 -29 -22.5 -67.5t-67.5 -38.5q-57 0 -57 72zM193 254q74 -76 194 -76q147 0 221 112.5t74 272.5q0 62 -8 111q-41 268 -209 413q-66 -147 -272 -833z" />
<glyph unicode="&#xdf;" horiz-adv-x="1249" d="M-289 -287q0 37 12.5 57.5t26.5 20.5q12 0 12 -16q0 -4 -1 -14.5t-1 -16.5q0 -59 40 -93t91 -34q51 -2 103.5 50t95.5 161q55 143 150.5 457.5t124.5 423.5h-134q-27 0 -26 12q0 10 14 20.5t29 10.5h131q96 342 135 426q41 88 119 135t176 47q168 0 254 -76 q88 -80 88 -154q0 -68 -73.5 -124t-161 -88.5t-161 -84t-73.5 -110.5q0 -53 49 -94t118 -71t138.5 -59.5t118.5 -76.5t49 -107q0 -131 -155.5 -233t-340.5 -102q-84 0 -118.5 31.5t-34.5 76.5q0 66 63 66q6 0 8.5 -9.5t5.5 -25t9 -25.5q35 -59 149.5 -59t214 58.5 t99.5 168.5q0 57 -47 103.5t-115 78t-135.5 64.5t-114.5 82t-47 110q0 147 258 232q88 29 151.5 78t63.5 110q0 63 -79 130t-181 67q-129 0 -194.5 -119t-163.5 -489q-133 -492 -213 -742q-68 -213 -167.5 -301t-199.5 -88q-90 0 -125 42t-35 93z" />
<glyph unicode="&#xe0;" d="M12 68q0 94 56.5 254.5t138.5 290.5t143 130h6l23 17q18 20 57 20q31 0 86.5 -16t61.5 -16q8 0 21 16t32 16q51 0 51 -45q0 -18 -7 -40.5t-20.5 -52.5t-15.5 -36q-2 -4 -19.5 -12t-19.5 -14q-45 -127 -79.5 -271.5t-34.5 -177.5q0 -51 28.5 -51t70.5 35t72.5 69.5 t32.5 34.5q4 0 4 -8q0 -31 -20 -47q-2 -2 -18.5 -17.5t-26.5 -23.5t-29.5 -25.5t-34 -28t-35 -24.5t-36 -21.5t-31.5 -13.5t-31 -6q-43 0 -51 51q0 86 68 318q-274 -379 -394 -379q-49 0 -49 74zM106 125q0 -35 21 -35q43 0 152.5 125t144.5 178q51 82 94 177.5t43 125.5 q0 12 -10 13h-6q-12 0 -43 4t-49 4q-29 0 -62 -8q-51 -14 -168 -242.5t-117 -341.5zM344 1149q0 20 12.5 37.5t30.5 17.5q8 0 21 -6q113 -76 206 -149.5t93 -92.5q0 -6 -6.5 -6t-10.5 2q-310 154 -330 166q-16 8 -16 31z" />
<glyph unicode="&#xe1;" d="M12 68q0 94 56.5 254.5t138.5 290.5t143 130h6l23 17q18 20 57 20q31 0 86.5 -16t61.5 -16q8 0 21 16t32 16q51 0 51 -45q0 -18 -7 -40.5t-20.5 -52.5t-15.5 -36q-2 -4 -19.5 -12t-19.5 -14q-45 -127 -79.5 -271.5t-34.5 -177.5q0 -51 28.5 -51t70.5 35t72.5 69.5 t32.5 34.5q4 0 4 -8q0 -31 -20 -47q-2 -2 -18.5 -17.5t-26.5 -23.5t-29.5 -25.5t-34 -28t-35 -24.5t-36 -21.5t-31.5 -13.5t-31 -6q-43 0 -51 51q0 86 68 318q-274 -379 -394 -379q-49 0 -49 74zM106 125q0 -35 21 -35q43 0 152.5 125t144.5 178q51 82 94 177.5t43 125.5 q0 12 -10 13h-6q-12 0 -43 4t-49 4q-29 0 -62 -8q-51 -14 -168 -242.5t-117 -341.5zM385 907q0 18 93 92t208 150q10 6 21 6q18 0 30.5 -17.5t12 -38t-16.5 -30.5q-20 -12 -330 -166q-4 -2 -10 -2q-8 0 -8 6z" />
<glyph unicode="&#xe2;" d="M12 68q0 94 56.5 254.5t138.5 290.5t143 130h6l23 17q18 20 57 20q31 0 86.5 -16t61.5 -16q8 0 21 16t32 16q51 0 51 -45q0 -18 -7 -40.5t-20.5 -52.5t-15.5 -36q-2 -4 -19.5 -12t-19.5 -14q-45 -127 -79.5 -271.5t-34.5 -177.5q0 -51 28.5 -51t70.5 35t72.5 69.5 t32.5 34.5q4 0 4 -8q0 -31 -20 -47q-2 -2 -18.5 -17.5t-26.5 -23.5t-29.5 -25.5t-34 -28t-35 -24.5t-36 -21.5t-31.5 -13.5t-31 -6q-43 0 -51 51q0 86 68 318q-274 -379 -394 -379q-49 0 -49 74zM106 125q0 -35 21 -35q43 0 152.5 125t144.5 178q51 82 94 177.5t43 125.5 q0 12 -10 13h-6q-12 0 -43 4t-49 4q-29 0 -62 -8q-51 -14 -168 -242.5t-117 -341.5zM387 1305q0 8 8 18q20 25 129 126t127 105q10 -4 69.5 -97t78.5 -128q2 -4 2 -14q0 -16 -10 -17q-3 1 -7 5q-27 23 -83 84t-76 92q-35 -31 -131.5 -106t-102.5 -75q-4 0 -4 7z" />
<glyph unicode="&#xe3;" d="M12 68q0 94 56.5 254.5t138.5 290.5t143 130h6l23 17q18 20 57 20q31 0 86.5 -16t61.5 -16q8 0 21 16t32 16q51 0 51 -45q0 -18 -7 -40.5t-20.5 -52.5t-15.5 -36q-2 -4 -19.5 -12t-19.5 -14q-45 -127 -79.5 -271.5t-34.5 -177.5q0 -51 28.5 -51t70.5 35t72.5 69.5 t32.5 34.5q4 0 4 -8q0 -31 -20 -47q-2 -2 -18.5 -17.5t-26.5 -23.5t-29.5 -25.5t-34 -28t-35 -24.5t-36 -21.5t-31.5 -13.5t-31 -6q-43 0 -51 51q0 86 68 318q-274 -379 -394 -379q-49 0 -49 74zM106 125q0 -35 21 -35q43 0 152.5 125t144.5 178q51 82 94 177.5t43 125.5 q0 12 -10 13h-6q-12 0 -43 4t-49 4q-29 0 -62 -8q-51 -14 -168 -242.5t-117 -341.5zM651 1073q0 14 34 44t54 40q33 20 74 21q35 0 98.5 -21.5t96.5 -21.5q49 0 86 43q12 -1 12 -9q0 -39 -57.5 -70.5t-79.5 -31.5q-37 0 -102.5 27.5t-100.5 27.5t-68.5 -26.5t-42.5 -26.5 q-4 0 -4 4z" />
<glyph unicode="&#xe4;" d="M12 68q0 94 56.5 254.5t138.5 290.5t143 130h6l23 17q18 20 57 20q31 0 86.5 -16t61.5 -16q8 0 21 16t32 16q51 0 51 -45q0 -18 -7 -40.5t-20.5 -52.5t-15.5 -36q-2 -4 -19.5 -12t-19.5 -14q-45 -127 -79.5 -271.5t-34.5 -177.5q0 -51 28.5 -51t70.5 35t72.5 69.5 t32.5 34.5q4 0 4 -8q0 -31 -20 -47q-2 -2 -18.5 -17.5t-26.5 -23.5t-29.5 -25.5t-34 -28t-35 -24.5t-36 -21.5t-31.5 -13.5t-31 -6q-43 0 -51 51q0 86 68 318q-274 -379 -394 -379q-49 0 -49 74zM106 125q0 -35 21 -35q43 0 152.5 125t144.5 178q51 82 94 177.5t43 125.5 q0 12 -10 13h-6q-12 0 -43 4t-49 4q-29 0 -62 -8q-51 -14 -168 -242.5t-117 -341.5zM365 1020q0 37 34.5 71.5t69.5 34.5q6 0 10 -6q0 -23 -12 -65.5t-12 -46.5q0 -29 -56 -43q-35 0 -34 55zM625 1020q0 37 34.5 71.5t69.5 34.5q9 0 12 -6q0 -23 -12 -65.5t-12 -46.5 q0 -29 -55 -43q-37 0 -37 55z" />
<glyph unicode="&#xe5;" d="M12 68q0 94 56.5 254.5t138.5 290.5t143 130h6l23 17q18 20 57 20q31 0 86.5 -16t61.5 -16q8 0 21 16t32 16q51 0 51 -45q0 -18 -7 -40.5t-20.5 -52.5t-15.5 -36q-2 -4 -19.5 -12t-19.5 -14q-45 -127 -79.5 -271.5t-34.5 -177.5q0 -51 28.5 -51t70.5 35t72.5 69.5 t32.5 34.5q4 0 4 -8q0 -31 -20 -47q-2 -2 -18.5 -17.5t-26.5 -23.5t-29.5 -25.5t-34 -28t-35 -24.5t-36 -21.5t-31.5 -13.5t-31 -6q-43 0 -51 51q0 86 68 318q-274 -379 -394 -379q-49 0 -49 74zM106 125q0 -35 21 -35q43 0 152.5 125t144.5 178q51 82 94 177.5t43 125.5 q0 12 -10 13h-6q-12 0 -43 4t-49 4q-29 0 -62 -8q-51 -14 -168 -242.5t-117 -341.5zM461 965q0 78 60.5 146.5t123.5 68.5q39 0 63.5 -30t24.5 -71q0 -74 -57.5 -133t-130.5 -59q-37 0 -60.5 20.5t-23.5 57.5zM508 983q0 -57 59 -57q51 0 88 47t37 106q0 70 -53 70 q-39 0 -85 -51t-46 -115z" />
<glyph unicode="&#xe6;" horiz-adv-x="962" d="M12 68q0 94 56.5 254.5t138.5 290.5t143 130h6l23 17q18 20 57 20q31 0 86.5 -16t61.5 -16q8 0 21 16t32 16q45 0 49 -35q53 16 111 17q69 0 96 -125q12 -63 12 -102q0 -45 -30.5 -77t-80 -45.5t-88 -18.5t-73.5 -5q-20 0 -46 1t-28 1q-68 -172 -67 -270q0 -82 61 -82 q43 0 100.5 54t100.5 108.5t51 54.5q14 0 14 -16q0 -57 -112.5 -158.5t-176.5 -101.5q-51 0 -93 31.5t-42 105.5q0 78 58 254q-266 -377 -392 -377q-49 0 -49 74zM106 125q0 -35 21 -35q43 0 152.5 125t144.5 178q51 82 94 177.5t43 125.5q0 12 -10 13h-6q-12 0 -43 4t-49 4 q-29 0 -62 -8q-51 -14 -168 -242.5t-117 -341.5zM578 449q4 0 32.5 -2.5t48.5 -2.5q84 0 121 19t39 76q0 51 -10 88t-23.5 51t-27.5 14q-41 0 -97.5 -88t-82.5 -155z" />
<glyph unicode="&#xe7;" horiz-adv-x="473" d="M-121 -551q0 18 37 24.5t82 7.5t82 31.5t37 94.5q0 29 -53.5 103.5t-53.5 115.5q0 102 66 151q-74 25 -74 136q0 145 94 350t164 235q31 12 66.5 31t61.5 29t56 10q96 0 97 -96q0 -47 -19.5 -79t-42.5 -32q-25 0 -24 37q0 12 8 45t8 47q0 33 -35 33q-25 0 -77 -34 t-78 -60q-39 -41 -116 -232.5t-77 -292.5q0 -74 59 -73q76 0 154 61.5t126 126t50 64.5q10 -4 10 -15q0 -55 -117.5 -171.5t-236.5 -125.5q-49 -37 -49 -110q0 -25 59.5 -100t59.5 -132q0 -68 -53.5 -116t-120 -67t-131.5 -19q-18 0 -19 22z" />
<glyph unicode="&#xe8;" horiz-adv-x="518" d="M41 117q0 23 6 53q14 78 38 151.5t26 90.5q-31 8 -31 32q0 23 35 23h14q82 164 94 186q57 109 219 109q70 0 97 -125q12 -63 12 -102q0 -45 -31 -77t-80 -45.5t-88 -18.5t-73 -5q-20 0 -46 1t-28 1q-68 -172 -68 -270q0 -82 62 -82q43 0 100 54t100 108.5t52 54.5 q14 0 14 -16q0 -57 -112.5 -158.5t-176.5 -101.5q-51 0 -93 31.5t-42 105.5zM223 449q4 0 33 -2.5t49 -2.5q84 0 121 19t39 76q0 51 -10.5 88t-23.5 51t-28 14q-41 0 -97 -88t-83 -155zM227 1094q0 20 12.5 37.5t30.5 17.5q8 0 21 -6q113 -76 206 -149.5t93 -92.5 q0 -6 -6 -6t-11 2q-309 154 -329 166q-16 8 -17 31z" />
<glyph unicode="&#xe9;" horiz-adv-x="518" d="M41 117q0 23 6 53q14 78 38 151.5t26 90.5q-31 8 -31 32q0 23 35 23h14q82 164 94 186q57 109 219 109q70 0 97 -125q12 -63 12 -102q0 -45 -31 -77t-80 -45.5t-88 -18.5t-73 -5q-20 0 -46 1t-28 1q-68 -172 -68 -270q0 -82 62 -82q43 0 100 54t100 108.5t52 54.5 q14 0 14 -16q0 -57 -112.5 -158.5t-176.5 -101.5q-51 0 -93 31.5t-42 105.5zM223 449q4 0 33 -2.5t49 -2.5q84 0 121 19t39 76q0 51 -10.5 88t-23.5 51t-28 14q-41 0 -97 -88t-83 -155zM330 887q0 18 93 92t208 149q8 6 20 7q18 0 30.5 -17.5t12.5 -38t-16 -30.5 q-20 -12 -330 -166q-4 -2 -10 -2q-8 0 -8 6z" />
<glyph unicode="&#xea;" horiz-adv-x="518" d="M41 117q0 23 6 53q14 78 38 151.5t26 90.5q-31 8 -31 32q0 23 35 23h14q82 164 94 186q57 109 219 109q70 0 97 -125q12 -63 12 -102q0 -45 -31 -77t-80 -45.5t-88 -18.5t-73 -5q-20 0 -46 1t-28 1q-68 -172 -68 -270q0 -82 62 -82q43 0 100 54t100 108.5t52 54.5 q14 0 14 -16q0 -57 -112.5 -158.5t-176.5 -101.5q-51 0 -93 31.5t-42 105.5zM223 449q4 0 33 -2.5t49 -2.5q84 0 121 19t39 76q0 51 -10.5 88t-23.5 51t-28 14q-41 0 -97 -88t-83 -155zM279 1180q0 8 8 18q20 25 128.5 126t127.5 106q10 -4 69.5 -97.5t77.5 -128.5 q2 -4 2 -14q0 -16 -10 -16q-2 0 -6 4q-27 23 -83 84t-77 92q-35 -31 -131 -105.5t-102 -74.5q-4 0 -4 6z" />
<glyph unicode="&#xeb;" horiz-adv-x="518" d="M41 117q0 23 6 53q14 78 38 151.5t26 90.5q-31 8 -31 32q0 23 35 23h14q82 164 94 186q57 109 219 109q70 0 97 -125q12 -63 12 -102q0 -45 -31 -77t-80 -45.5t-88 -18.5t-73 -5q-20 0 -46 1t-28 1q-68 -172 -68 -270q0 -82 62 -82q43 0 100 54t100 108.5t52 54.5 q14 0 14 -16q0 -57 -112.5 -158.5t-176.5 -101.5q-51 0 -93 31.5t-42 105.5zM223 449q4 0 33 -2.5t49 -2.5q84 0 121 19t39 76q0 51 -10.5 88t-23.5 51t-28 14q-41 0 -97 -88t-83 -155zM281 991q0 37 34.5 72t69.5 35q8 0 10 -6q0 -23 -12 -66t-12 -47q0 -29 -56 -43 q-35 0 -34 55zM541 991q0 37 34.5 72t69.5 35q9 0 12 -6q0 -23 -12 -66t-12 -47q0 -29 -55 -43q-37 0 -37 55z" />
<glyph unicode="&#xec;" horiz-adv-x="344" d="M37 25q0 18 8 43q23 63 46.5 130.5t35.5 104.5t25.5 76t19.5 58.5t11 39t7.5 29.5t2.5 20q0 8 -3.5 15.5t-3.5 11.5q0 8 7 27q45 129 79.5 172t102.5 43q27 -1 31 -19q-4 -6 -28 -51t-40 -78t-45 -96.5t-51.5 -120.5t-47 -137t-42.5 -160q-2 -6 -2 -16q0 -25 20 -25 q12 0 66.5 31t70.5 31q14 0 17 -9q0 -25 -104.5 -91t-143.5 -66t-39 37zM176 1174q0 20 12.5 37.5t30.5 17.5q8 0 21 -6q113 -76 206 -150t93 -92q0 -6 -6.5 -6t-10.5 2q-309 154 -329 166q-16 8 -17 31z" />
<glyph unicode="&#xed;" horiz-adv-x="344" d="M37 25q0 18 8 43q23 63 46.5 130.5t35.5 104.5t25.5 76t19.5 58.5t11 39t7.5 29.5t2.5 20q0 8 -3.5 15.5t-3.5 11.5q0 8 7 27q45 129 79.5 172t102.5 43q27 -1 31 -19q-4 -6 -28 -51t-40 -78t-45 -96.5t-51.5 -120.5t-47 -137t-42.5 -160q-2 -6 -2 -16q0 -25 20 -25 q12 0 66.5 31t70.5 31q14 0 17 -9q0 -25 -104.5 -91t-143.5 -66t-39 37zM342 979q0 18 93 92t208 150q8 6 21 6q18 0 30.5 -17.5t12 -38t-16.5 -30.5q-20 -12 -330 -166q-4 -2 -10 -2q-8 0 -8 6z" />
<glyph unicode="&#xee;" horiz-adv-x="344" d="M37 25q0 18 8 43q23 63 46.5 130.5t35.5 104.5t25.5 76t19.5 58.5t11 39t7.5 29.5t2.5 20q0 8 -3.5 15.5t-3.5 11.5q0 8 7 27q45 129 79.5 172t102.5 43q27 -1 31 -19q-4 -6 -28 -51t-40 -78t-45 -96.5t-51.5 -120.5t-47 -137t-42.5 -160q-2 -6 -2 -16q0 -25 20 -25 q12 0 66.5 31t70.5 31q14 0 17 -9q0 -25 -104.5 -91t-143.5 -66t-39 37zM197 1022q0 8 8 18q20 25 128.5 126.5t127.5 105.5q10 -4 69.5 -97.5t77.5 -127.5q2 -4 2 -15q0 -16 -10 -16q-2 0 -6 4q-27 23 -83 84t-77 92q-35 -31 -131 -105.5t-102 -74.5q-4 0 -4 6z" />
<glyph unicode="&#xef;" horiz-adv-x="344" d="M37 25q0 18 8 43q23 63 46.5 130.5t35.5 104.5t25.5 76t19.5 58.5t11 39t7.5 29.5t2.5 20q0 8 -3.5 15.5t-3.5 11.5q0 8 7 27q45 129 79.5 172t102.5 43q27 -1 31 -19q-4 -6 -28 -51t-40 -78t-45 -96.5t-51.5 -120.5t-47 -137t-42.5 -160q-2 -6 -2 -16q0 -25 20 -25 q12 0 66.5 31t70.5 31q14 0 17 -9q0 -25 -104.5 -91t-143.5 -66t-39 37zM213 1083q0 37 35 72t69 35q7 0 11 -6q0 -20 -12.5 -65.5t-12.5 -47.5q0 -29 -55 -43q-35 0 -35 55zM473 1083q0 37 35 72t70 35q9 0 12 -6q0 -20 -12.5 -65.5t-12.5 -47.5q0 -29 -55 -43 q-37 0 -37 55z" />
<glyph unicode="&#xf0;" horiz-adv-x="634" d="M43 133q0 47 8 94q10 63 39 149.5t74 181.5t111.5 160.5t138.5 65.5q25 0 45 -6q-4 86 -119 291q-154 -80 -182 -80q-20 0 -21 21q0 23 27 41q37 25 145 71q-23 37 -58.5 80t-57 69.5t-21.5 37.5q0 20 15.5 37.5t35.5 17.5q57 0 168 -205q182 78 199 78q8 0 8 -4 q0 -29 -182 -125q123 -246 123 -518q0 -219 -119 -418t-266 -199q-111 0 -111 160zM135 123q0 -100 58 -100q82 0 183 166.5t101 367.5v37q0 96 -53 96h-14q-4 2 -15 2q-63 0 -147 -187.5t-105 -295.5q-8 -47 -8 -86z" />
<glyph unicode="&#xf1;" horiz-adv-x="667" d="M-6 -20q4 -6 76.5 204.5t103.5 304.5q8 25 8 37q0 8 -3 15.5t-3 11.5q0 8 6 27q47 131 80 173t100 42q27 0 31 -19q-168 -344 -200 -491q338 545 518 544q41 0 41 -26q-1 -18 -15 -41q-104 -174 -194 -399.5t-90 -337.5q0 -37 16 -37q6 0 40 20.5t40 20.5q12 0 12 -13 q0 -25 -45 -55.5t-90 -30.5q-59 0 -59 88q0 80 32.5 186.5t102 272.5t69.5 168q10 27 11 41q0 10 -7 10q-10 0 -45 -37q-88 -98 -251.5 -335.5t-167.5 -292.5q-2 -14 -39 -40t-62 -26q-14 0 -16 15zM358 1012q0 14 34 43.5t54 40.5q33 20 74 20q35 0 98.5 -21.5t96.5 -21.5 q49 0 86 43q12 0 12 -8q0 -39 -57.5 -70.5t-79.5 -31.5q-37 0 -102.5 27.5t-100.5 27.5t-68.5 -26.5t-42.5 -26.5q-4 0 -4 4z" />
<glyph unicode="&#xf2;" horiz-adv-x="534" d="M43 133q0 47 8 94q10 53 37 137.5t70 182.5t105.5 166.5t125.5 68.5h14q0 29 16.5 49.5t45.5 20.5q29 -2 51.5 -120t65.5 -122q39 -6 39 -22q0 -19 -39 -37q-23 -10 -47 -10q0 -240 -125 -410t-248 -170q-119 0 -119 172zM135 123q0 -100 58 -100q82 0 183 166.5 t101 367.5q-18 10 -44.5 72.5t-37.5 62.5q-63 0 -147 -187.5t-105 -295.5q-8 -47 -8 -86zM248 1239q0 20 12 37.5t31 17.5q8 0 20 -6q113 -76 206 -149.5t93 -91.5q0 -6 -6 -6.5t-10 1.5q-310 154 -330 166q-16 8 -16 31z" />
<glyph unicode="&#xf3;" horiz-adv-x="534" d="M43 133q0 47 8 94q10 53 37 137.5t70 182.5t105.5 166.5t125.5 68.5h14q0 29 16.5 49.5t45.5 20.5q29 -2 51.5 -120t65.5 -122q39 -6 39 -22q0 -19 -39 -37q-23 -10 -47 -10q0 -240 -125 -410t-248 -170q-119 0 -119 172zM135 123q0 -100 58 -100q82 0 183 166.5 t101 367.5q-18 10 -44.5 72.5t-37.5 62.5q-63 0 -147 -187.5t-105 -295.5q-8 -47 -8 -86zM373 1047q0 18 93 91.5t208 149.5q10 6 20 6q18 0 30.5 -17t12.5 -38t-16 -31q-20 -12 -330 -166q-4 -2 -10 -2q-8 0 -8 7z" />
<glyph unicode="&#xf4;" horiz-adv-x="534" d="M43 133q0 47 8 94q10 53 37 137.5t70 182.5t105.5 166.5t125.5 68.5h14q0 29 16.5 49.5t45.5 20.5q29 -2 51.5 -120t65.5 -122q39 -6 39 -22q0 -19 -39 -37q-23 -10 -47 -10q0 -240 -125 -410t-248 -170q-119 0 -119 172zM135 123q0 -100 58 -100q82 0 183 166.5 t101 367.5q-18 10 -44.5 72.5t-37.5 62.5q-63 0 -147 -187.5t-105 -295.5q-8 -47 -8 -86zM287 1026q0 8 8 18q20 25 128.5 126.5t127.5 105.5q10 -4 69.5 -97.5t77.5 -127.5q2 -4 2 -15q0 -16 -10 -16q-2 0 -6 4q-27 23 -83 84t-77 92q-35 -31 -131 -105.5t-102 -74.5 q-4 0 -4 6z" />
<glyph unicode="&#xf5;" horiz-adv-x="534" d="M43 133q0 47 8 94q10 53 37 137.5t70 182.5t105.5 166.5t125.5 68.5h14q0 29 16.5 49.5t45.5 20.5q29 -2 51.5 -120t65.5 -122q39 -6 39 -22q0 -19 -39 -37q-23 -10 -47 -10q0 -240 -125 -410t-248 -170q-119 0 -119 172zM135 123q0 -100 58 -100q82 0 183 166.5 t101 367.5q-18 10 -44.5 72.5t-37.5 62.5q-63 0 -147 -187.5t-105 -295.5q-8 -47 -8 -86zM246 1036q0 14 33.5 44t54.5 40q33 20 74 21q35 0 98 -21.5t96 -21.5q49 0 86 43q12 0 12 -8q0 -39 -57 -71t-80 -32q-37 0 -102.5 27.5t-100 27.5t-68.5 -26.5t-42 -26.5q-4 0 -4 4z " />
<glyph unicode="&#xf6;" horiz-adv-x="534" d="M43 133q0 47 8 94q10 53 37 137.5t70 182.5t105.5 166.5t125.5 68.5h14q0 29 16.5 49.5t45.5 20.5q29 -2 51.5 -120t65.5 -122q39 -6 39 -22q0 -19 -39 -37q-23 -10 -47 -10q0 -240 -125 -410t-248 -170q-119 0 -119 172zM135 123q0 -100 58 -100q82 0 183 166.5 t101 367.5q-18 10 -44.5 72.5t-37.5 62.5q-63 0 -147 -187.5t-105 -295.5q-8 -47 -8 -86zM301 1083q0 37 35 72t70 35q8 0 10 -6q0 -20 -12.5 -65.5t-12.5 -47.5q0 -29 -55 -43q-35 0 -35 55zM561 1083q0 37 35 72t70 35q9 0 12 -6q0 -20 -12.5 -65.5t-12.5 -47.5 q0 -29 -55 -43q-37 0 -37 55z" />
<glyph unicode="&#xf7;" horiz-adv-x="831" d="M39 481q0 39 33.5 47.5t173.5 5.5q96 -1 160 -2q35 0 97 -1t111 -1q127 1 197 7l1 -2q1 -2 1 -5q0 -23 -80 -42t-186.5 -33.5t-122.5 -18.5t-68 -4q-109 0 -213 12.5t-104 36.5zM291 287q0 59 78 59q29 0 57.5 -19.5t28.5 -50.5q0 -25 -27 -43t-51 -18q-35 0 -60.5 21.5 t-25.5 50.5zM385 696q0 59 78 60q29 0 57.5 -19.5t28.5 -50.5q0 -25 -26.5 -43t-51.5 -18q-35 0 -60.5 21.5t-25.5 49.5z" />
<glyph unicode="&#xf8;" horiz-adv-x="534" d="M43 131q0 47 8 96q10 53 37 137.5t70 182.5t105.5 166.5t125.5 68.5h14q0 29 16.5 49.5t45.5 20.5q25 -2 43 -80q98 154 113 154q10 -1 20 -13q4 -8 4 -16q0 -12 -18.5 -43t-55 -84t-49.5 -74q10 -45 35 -66.5t44.5 -27.5t19.5 -14q0 -16 -31 -31.5t-55 -15.5 q0 -240 -125 -410t-250 -170q-20 0 -45 10q-35 -82 -35 -118q0 -10 4 -19.5t8 -13.5t4 -6q0 -6 -9 -13.5t-15 -7.5q-27 0 -27 43q0 61 39 158q-41 41 -41 137zM135 109q102 209 291 530q-4 10 -8 21.5t-6 17.5t-5.5 10t-11.5 4q-63 0 -147.5 -187t-104.5 -296q-8 -41 -8 -80 v-20zM150 45q14 -23 40 -22q84 0 185.5 165.5t101.5 368.5q-12 6 -24 29q-195 -322 -303 -541z" />
<glyph unicode="&#xf9;" horiz-adv-x="681" d="M14 18q0 31 23 88q0 2 49 111t79 187.5t30 113.5q0 10 -4.5 19.5t-4.5 15.5q0 2 4 22q35 131 66 173.5t102 42.5q29 0 35 -19q-246 -604 -246 -633q0 -8 7 -8q8 0 49 33q205 158 360 442q2 63 39 131t109 68q22 -1 24 -19q-6 -18 -45 -122.5t-63 -176.5 q-37 -104 -79 -253.5t-42 -182.5q0 -6 4 -6q16 0 82.5 51t91.5 51q16 0 16 -10q0 -14 -46 -47t-105.5 -68.5t-65.5 -39.5q-14 -12 -41.5 -42t-51 -49.5t-42.5 -19.5q-27 0 -26 23q0 14 32.5 43.5t42.5 52.5q35 84 140 489q-96 -143 -255 -320t-239 -177q-29 0 -29 36z M354 1219q0 20 12.5 37.5t30.5 17.5q8 0 21 -6q113 -76 206 -150t93 -92q0 -6 -6 -6t-11 2q-309 154 -329 166q-16 8 -17 31z" />
<glyph unicode="&#xfa;" horiz-adv-x="681" d="M14 18q0 31 23 88q0 2 49 111t79 187.5t30 113.5q0 10 -4.5 19.5t-4.5 15.5q0 2 4 22q35 131 66 173.5t102 42.5q29 0 35 -19q-246 -604 -246 -633q0 -8 7 -8q8 0 49 33q205 158 360 442q2 63 39 131t109 68q22 -1 24 -19q-6 -18 -45 -122.5t-63 -176.5 q-37 -104 -79 -253.5t-42 -182.5q0 -6 4 -6q16 0 82.5 51t91.5 51q16 0 16 -10q0 -14 -46 -47t-105.5 -68.5t-65.5 -39.5q-14 -12 -41.5 -42t-51 -49.5t-42.5 -19.5q-27 0 -26 23q0 14 32.5 43.5t42.5 52.5q35 84 140 489q-96 -143 -255 -320t-239 -177q-29 0 -29 36z M453 1020q0 18 93 92t208 150q8 6 20 6q18 0 30.5 -17.5t12.5 -38t-16 -30.5q-20 -12 -330 -166q-4 -2 -10 -2q-8 0 -8 6z" />
<glyph unicode="&#xfb;" horiz-adv-x="681" d="M14 18q0 31 23 88q0 2 49 111t79 187.5t30 113.5q0 10 -4.5 19.5t-4.5 15.5q0 2 4 22q35 131 66 173.5t102 42.5q29 0 35 -19q-246 -604 -246 -633q0 -8 7 -8q8 0 49 33q205 158 360 442q2 63 39 131t109 68q22 -1 24 -19q-6 -18 -45 -122.5t-63 -176.5 q-37 -104 -79 -253.5t-42 -182.5q0 -6 4 -6q16 0 82.5 51t91.5 51q16 0 16 -10q0 -14 -46 -47t-105.5 -68.5t-65.5 -39.5q-14 -12 -41.5 -42t-51 -49.5t-42.5 -19.5q-27 0 -26 23q0 14 32.5 43.5t42.5 52.5q35 84 140 489q-96 -143 -255 -320t-239 -177q-29 0 -29 36z M356 1026q0 8 9 18q20 25 128.5 126.5t127.5 105.5q10 -4 69.5 -97.5t77.5 -127.5q2 -4 2 -15q0 -16 -10 -16q-2 0 -6 4q-27 23 -83.5 84t-76.5 92q-35 -31 -131 -105.5t-103 -74.5q-4 0 -4 6z" />
<glyph unicode="&#xfc;" horiz-adv-x="681" d="M14 18q0 31 23 88q0 2 49 111t79 187.5t30 113.5q0 10 -4.5 19.5t-4.5 15.5q0 2 4 22q35 131 66 173.5t102 42.5q29 0 35 -19q-246 -604 -246 -633q0 -8 7 -8q8 0 49 33q205 158 360 442q2 63 39 131t109 68q22 -1 24 -19q-6 -18 -45 -122.5t-63 -176.5 q-37 -104 -79 -253.5t-42 -182.5q0 -6 4 -6q16 0 82.5 51t91.5 51q16 0 16 -10q0 -14 -46 -47t-105.5 -68.5t-65.5 -39.5q-14 -12 -41.5 -42t-51 -49.5t-42.5 -19.5q-27 0 -26 23q0 14 32.5 43.5t42.5 52.5q35 84 140 489q-96 -143 -255 -320t-239 -177q-29 0 -29 36z M387 1083q0 37 35 72t70 35q8 0 10 -6q0 -20 -12.5 -65.5t-12.5 -47.5q0 -29 -55 -43q-35 0 -35 55zM647 1083q0 37 35 72t70 35q9 0 12 -6q0 -20 -12.5 -65.5t-12.5 -47.5q0 -29 -55 -43q-37 0 -37 55z" />
<glyph unicode="&#xfd;" horiz-adv-x="649" d="M-178 -637q0 74 88 224.5t181 279.5t95 137q23 68 23 184q0 168 -32 295t-87 127q-8 0 -18 -1l-11 -1q-8 0 -8 10q0 16 45 50q6 4 35 45t43 41q43 0 77 -132.5t34 -293.5q0 -16 -1 -49t-1 -50q0 -33 16 -32q47 0 189.5 217t142.5 276q0 12 -10 12q-4 0 -14.5 -4t-16.5 -4 q-10 0 -17 11q0 27 59.5 59.5t96.5 32.5q10 0 14 -2q6 -8 7 -23q0 -82 -179.5 -329.5t-287.5 -374.5q0 10 -4 -3q-31 -122 -36 -136q-10 -22 -20 -21q-8 0 -21.5 5t-15.5 5q-276 -371 -276 -475q0 -18 8 -37.5t8 -26.5q0 -23 -24.5 -39t-48.5 -16q-33 0 -33 39zM397 967 q0 18 93.5 92t207.5 149q10 6 21 6q18 0 30.5 -17t12 -38t-16.5 -31q-20 -12 -329 -165q-4 -2 -10 -2q-8 0 -9 6z" />
<glyph unicode="&#xfe;" horiz-adv-x="448" d="M-139 -514q0 43 33.5 149.5t98 277.5t66.5 179q-6 14 -6 35q0 47 45 76q137 424 160 506q0 2 -22.5 5t-22.5 13q0 16 31.5 28.5t31.5 14.5q31 84 67 189.5t55.5 161t43 109.5t45 76.5t45.5 22.5q14 0 15 -16q0 -14 -12 -41q-4 -10 -91.5 -253t-87.5 -245q95 -65 148 -186 q61 -145 61 -295q0 -133 -63.5 -222t-206.5 -89q-119 0 -184 53q-18 -53 -69.5 -201.5t-74.5 -214.5q-2 -4 -2 -8q0 -6 7.5 -18.5t7.5 -24.5q0 -25 -31 -79t-64 -54q-25 0 -24 51zM135 80q72 -47 139 -47q104 0 154.5 68.5t50.5 166.5q0 46 -10 107q-23 113 -67 206t-66 93 q-6 0 -31.5 -78t-63.5 -201t-61 -186z" />
<glyph unicode="&#xff;" horiz-adv-x="649" d="M-178 -637q0 74 88 224.5t181 279.5t95 137q23 68 23 184q0 168 -32 295t-87 127q-8 0 -18 -1l-11 -1q-8 0 -8 10q0 16 45 50q6 4 35 45t43 41q43 0 77 -132.5t34 -293.5q0 -16 -1 -49t-1 -50q0 -33 16 -32q47 0 189.5 217t142.5 276q0 12 -10 12q-4 0 -14.5 -4t-16.5 -4 q-10 0 -17 11q0 27 59.5 59.5t96.5 32.5q10 0 14 -2q6 -8 7 -23q0 -82 -179.5 -329.5t-287.5 -374.5q0 10 -4 -3q-31 -122 -36 -136q-10 -22 -20 -21q-8 0 -21.5 5t-15.5 5q-276 -371 -276 -475q0 -18 8 -37.5t8 -26.5q0 -23 -24.5 -39t-48.5 -16q-33 0 -33 39zM313 1022 q0 37 35 71.5t70 34.5q8 0 10 -6q0 -20 -12.5 -65t-12.5 -47q0 -29 -55 -43q-35 0 -35 55zM573 1022q0 37 35 71.5t70 34.5q9 0 12 -6q0 -20 -12 -65t-12 -47q0 -29 -56 -43q-37 0 -37 55z" />
<glyph unicode="&#x152;" horiz-adv-x="2256" d="M127 508q0 166 68.5 328.5t203.5 287.5q-25 -12 -60.5 -29.5t-56 -27.5t-24.5 -10q-18 0 -18 18q0 20 83 61.5t154 67.5q106 104 241.5 172t272.5 68q143 0 144 -78q0 -45 -48 -109q188 -27 310 -157q12 86 28 149h-108q-45 2 -45 17q0 10 26.5 21t59.5 11h80 q12 68 40.5 93.5t84.5 25.5q31 0 30 -20q0 -8 -7 -25.5t-17 -40t-15 -31.5q6 0 35 -1t87 -1h132q33 0 150 1t201 1q31 0 30 -30q0 -23 -21.5 -56.5t-41.5 -33.5q-8 0 -27.5 25.5t-42.5 27.5q-35 4 -174 4q-18 0 -51 -1t-45 -1q-10 0 -252 4q-70 -238 -111 -561q463 0 586 6 q12 0 12 -12q0 -14 -20.5 -32.5t-56.5 -25.5h-529q-25 -236 -24 -397q0 -88 10 -154q27 0 200 -1t332 -1q131 0 236 33h2q8 0 8 -20q0 -25 -16.5 -49.5t-44.5 -24.5q-45 0 -139.5 -1t-145.5 -1q-614 0 -614 10q0 14 28.5 38t52.5 28q0 4 -1 14t-1 16q0 25 5 95 q-117 -113 -273 -174.5t-317 -61.5q-287 0 -436.5 153.5t-149.5 391.5zM225 537q0 -225 127 -375t375 -150q152 0 324 85t258 206q27 369 71 690q-49 92 -130 150.5t-183 73.5q-31 -37 -51 -37q-10 0 -10 8q0 16 18 33q-29 2 -84 2q-211 -1 -422 -58 q-150 -113 -221.5 -279.5t-71.5 -348.5zM584 1235q121 37 301 37q96 0 168 -8q18 43 18 69q0 49 -78 49q-98 0 -214.5 -43t-194.5 -104z" />
<glyph unicode="&#x153;" horiz-adv-x="940" d="M41 131q0 39 10 96q10 53 37 137.5t70 182.5t105.5 166.5t125.5 68.5h14q0 43 27 43q29 0 61.5 -73.5t45.5 -155.5q41 96 97 131t152 35q70 0 97 -125q12 -63 12 -102q0 -45 -30.5 -77t-80 -45.5t-88.5 -18.5t-73 -5q-20 0 -46 1t-28 1q-68 -172 -68 -270q0 -82 62 -82 q43 0 100 54t100 108.5t52 54.5q14 0 14 -16q0 -57 -112.5 -158.5t-176.5 -101.5q-49 0 -90 27.5t-45 92.5q-113 -139 -223 -139q-55 0 -88 43t-33 127zM135 123q0 -100 58 -100q82 0 183 166.5t101 367.5q-18 10 -44.5 72.5t-37.5 62.5q-63 0 -147 -187.5t-105 -295.5 q-8 -47 -8 -86zM567 449q4 0 33 -2.5t49 -2.5q84 0 121 19t39 76q0 51 -10.5 88t-23.5 51t-27 14q-41 0 -97.5 -88t-83.5 -155z" />
<glyph unicode="&#x178;" horiz-adv-x="1064" d="M61 1276q0 63 93 63q25 0 55.5 -8t30.5 -20q0 -4 -2 -8.5t-6.5 -8.5t-7.5 -6t-5 -4l-2 -2q-27 -6 -27 -57q0 -139 189 -592q57 49 157.5 144t229.5 252t152 251q20 86 75 86q47 0 47 -41q0 -53 -215 -315q-127 -154 -422 -428q-20 -57 -41.5 -170t-25.5 -181 q-4 -61 -10.5 -95t-22.5 -69.5t-48 -51t-83 -15.5q-35 0 -35 20q1 17 58 121q102 219 102 394q0 23 -2 30q-100 262 -219 631q-14 41 -15 80zM410 1599q0 37 34.5 72t69.5 35q6 0 10 -6q0 -20 -12 -65.5t-12 -47.5q0 -29 -56 -43q-35 0 -34 55zM670 1599q0 37 34.5 72 t69.5 35q9 0 12 -6q0 -20 -12 -65.5t-12 -47.5q0 -29 -55 -43q-37 0 -37 55z" />
<glyph unicode="&#x2c6;" horiz-adv-x="757" d="M229 1026q0 8 9 18q20 25 128.5 126.5t127.5 105.5q10 -4 69.5 -97.5t77.5 -127.5q2 -4 2 -15q0 -16 -10 -16q-2 0 -6 4q-27 23 -83.5 84t-76.5 92q-35 -31 -131 -105.5t-103 -74.5q-4 0 -4 6z" />
<glyph unicode="&#x2dc;" horiz-adv-x="557" d="M362 1012q0 14 34 43.5t55 40.5q33 20 73 20q35 0 98.5 -21.5t96.5 -21.5q49 0 86 43q12 0 12 -8q0 -39 -57.5 -70.5t-79.5 -31.5q-37 0 -102.5 27.5t-100.5 27.5t-68.5 -26.5t-41.5 -26.5q-4 0 -5 4z" />
<glyph unicode="&#x2000;" horiz-adv-x="870" />
<glyph unicode="&#x2001;" horiz-adv-x="1741" />
<glyph unicode="&#x2002;" horiz-adv-x="870" />
<glyph unicode="&#x2003;" horiz-adv-x="1741" />
<glyph unicode="&#x2004;" horiz-adv-x="580" />
<glyph unicode="&#x2005;" horiz-adv-x="435" />
<glyph unicode="&#x2006;" horiz-adv-x="290" />
<glyph unicode="&#x2007;" horiz-adv-x="290" />
<glyph unicode="&#x2008;" horiz-adv-x="217" />
<glyph unicode="&#x2009;" horiz-adv-x="348" />
<glyph unicode="&#x200a;" horiz-adv-x="96" />
<glyph unicode="&#x2010;" horiz-adv-x="591" d="M47 274q0 18 10.5 33t25.5 23t30.5 14t24.5 8l9 2q14 0 15 -10q0 -12 -10 -22q106 -8 172 -9q40 0 65 2q74 2 105 4q37 0 36 -12q0 -20 -139 -39.5t-254 -19.5q-8 0 -21.5 1t-19.5 1q-2 0 -8 -1t-10 -1q-31 0 -31 26z" />
<glyph unicode="&#x2011;" horiz-adv-x="591" d="M47 274q0 18 10.5 33t25.5 23t30.5 14t24.5 8l9 2q14 0 15 -10q0 -12 -10 -22q106 -8 172 -9q40 0 65 2q74 2 105 4q37 0 36 -12q0 -20 -139 -39.5t-254 -19.5q-8 0 -21.5 1t-19.5 1q-2 0 -8 -1t-10 -1q-31 0 -31 26z" />
<glyph unicode="&#x2012;" horiz-adv-x="591" d="M47 274q0 18 10.5 33t25.5 23t30.5 14t24.5 8l9 2q14 0 15 -10q0 -12 -10 -22q106 -8 172 -9q40 0 65 2q74 2 105 4q37 0 36 -12q0 -20 -139 -39.5t-254 -19.5q-8 0 -21.5 1t-19.5 1q-2 0 -8 -1t-10 -1q-31 0 -31 26z" />
<glyph unicode="&#x2013;" horiz-adv-x="813" d="M51 305q0 14 8.5 26.5t20.5 12.5h162q301 0 456 -8q160 -7 195 -25q10 -6 10 -10q0 -18 -76 -18h-751q-25 0 -25 22z" />
<glyph unicode="&#x2014;" horiz-adv-x="1241" d="M51 305q0 14 8.5 26.5t20.5 12.5h162q893 0 954 -33q10 -6 10 -10q0 -18 -76 -18h-1054q-25 0 -25 22z" />
<glyph unicode="&#x2018;" horiz-adv-x="452" d="M86 909q0 14 9 29.5t11 22.5q47 154 157 258t161 104q10 0 10 -10h-2q-68 -68 -138.5 -163t-70.5 -142q0 -10 14.5 -33t14.5 -39q0 -43 -31 -64l-4 -2h2q-51 -47 -88 -47q-27 0 -36 33t-9 53z" />
<glyph unicode="&#x2019;" horiz-adv-x="428" d="M281 682v4q68 68 137 162t69 141q0 14 -8 23l-2 2q-18 18 -18 45q0 39 33 65l4 2q51 45 86 45q20 0 28 -16q14 -45 15 -68q0 -14 -9.5 -29.5t-11.5 -21.5l2 -2q-49 -152 -158.5 -256t-158.5 -104q-8 0 -8 8z" />
<glyph unicode="&#x201a;" horiz-adv-x="522" d="M139 0v4q68 68 137.5 162t69.5 141q0 14 -8 23l-2 2q-18 18 -19 41q0 41 41 77.5t80 36.5q19 0 31 -14q12 -37 12 -67q0 -16 -4 -28.5t-10 -24t-8 -17.5q-47 -135 -156.5 -239.5t-155.5 -104.5q-8 0 -8 8z" />
<glyph unicode="&#x201c;" horiz-adv-x="563" d="M86 909q0 14 9 29.5t11 22.5q47 154 157 258t161 104q10 0 10 -10h-2q-68 -68 -138.5 -163t-70.5 -142q0 -10 14.5 -33t14.5 -39q0 -43 -31 -64l-4 -2h2q-51 -47 -88 -47q-27 0 -36 33t-9 53zM356 928q0 12 4.5 19t9.5 15.5t7 14.5q49 152 157.5 257t157.5 105 q10 0 10 -8v-2q-68 -68 -138 -163t-70 -142q0 -10 14 -32.5t14 -39.5q0 -43 -30 -63l-5 -2v2q-51 -47 -88 -47q-25 0 -34 31.5t-9 54.5z" />
<glyph unicode="&#x201d;" horiz-adv-x="831" d="M182 821h2q68 68 137.5 162t69.5 141q0 16 -8 25l-2 2q-18 18 -19 45q0 39 33 66l2 2v-2q51 47 88 47q21 -1 29 -17q14 -45 14 -67q0 -14 -9 -29.5t-11 -21.5l2 -3q-49 -152 -158.5 -256t-158.5 -104q-10 0 -11 10zM451 836v2l2 2q66 66 135 160t69 141q0 16 -8 24v2 q-18 18 -18 45q0 41 31 66l4 2q51 45 86 45q20 0 28 -16q14 -45 15 -68q0 -14 -8.5 -28.5t-10.5 -22.5v-2q-49 -152 -158.5 -256.5t-158.5 -104.5q-8 0 -8 9z" />
<glyph unicode="&#x201e;" horiz-adv-x="915" d="M139 0v4q68 68 137.5 162t69.5 141q0 14 -8 23l-2 2q-18 18 -19 41q0 41 41 77.5t80 36.5q19 0 31 -14q12 -37 12 -67q0 -16 -4 -28.5t-10 -24t-8 -17.5q-47 -135 -156.5 -239.5t-155.5 -104.5q-8 0 -8 8zM481 0v4q68 68 137.5 162t69.5 141q0 14 -8 23l-2 2 q-18 18 -19 41q0 41 41 77.5t80 36.5q19 0 31 -14q12 -37 12 -67q0 -16 -4 -28.5t-10 -24t-8 -17.5q-47 -135 -156.5 -239.5t-155.5 -104.5q-8 0 -8 8z" />
<glyph unicode="&#x2022;" horiz-adv-x="1099" d="M111 483q0 184 130 314.5t312 130.5q184 0 314 -130.5t130 -312.5q0 -184 -130 -314t-312 -130q-184 0 -314 130t-130 312z" />
<glyph unicode="&#x2026;" horiz-adv-x="1402" d="M231 53q0 35 48.5 70t74.5 35q4 0 8 -4l-6 -30q-12 -64 -19 -90t-24.5 -43.5t-46.5 -17.5q-35 0 -35 80zM657 53q0 35 48.5 70t74.5 35q4 0 8 -4l-6 -30q-12 -64 -19 -90t-24.5 -43.5t-46.5 -17.5q-35 0 -35 80zM1083 49q0 35 48.5 70t72.5 35q8 0 8 -4 q-28 -139 -46 -161q-16 -19 -48 -20q-35 0 -35 80z" />
<glyph unicode="&#x202f;" horiz-adv-x="348" />
<glyph unicode="&#x2039;" horiz-adv-x="663" d="M29 530q2 53 16 60q473 371 559 452q2 2 6 2q6 0 6 -18q0 -27 -10 -65t-18 -46q-383 -276 -471 -364q35 -68 107.5 -174.5t124.5 -181t52 -82.5q0 -31 -6 -59.5t-13 -43t-11 -16.5q4 6 -35 67.5t-95.5 147.5t-70.5 108q-27 41 -60.5 91.5t-54 80t-26.5 41.5z" />
<glyph unicode="&#x203a;" horiz-adv-x="759" d="M131 0q0 25 10.5 64t18.5 47q383 276 471 364q-35 68 -108.5 173.5t-126 180t-52.5 82.5q0 31 6 59.5t12.5 44t10.5 17.5q-4 -6 205 -323q27 -43 59.5 -92.5t54 -80t27.5 -40.5q-2 -53 -17 -60q-473 -371 -559 -452q-4 -4 -6 -4q-6 0 -6 20z" />
<glyph unicode="&#x205f;" horiz-adv-x="435" />
<glyph unicode="&#x20ac;" horiz-adv-x="1400" d="M25 465q0 12 8 24.5t18 12.5h31q23 0 69 1t64 1h47v53q0 109 21 205h-148q-25 0 -24 22q0 12 8 24.5t18 12.5h31q20 0 66.5 1t64.5 1q66 233 237 379t416 146q375 0 375 -164q0 -51 -8 -51l-4 4q-20 33 -54 63.5t-117 63t-188 32.5q-201 0 -346 -132t-207 -341 q434 -6 500 -16q59 -9 60 -27q0 -18 -76 -18h-500q-23 -104 -22 -227v-33q55 0 127.5 -2t121 -3t58.5 -1q151 0 194 -25q10 -6 11 -10q0 -18 -76 -19h-432q23 -193 134 -310.5t308 -117.5q102 0 192.5 29t149.5 74t95 82t59 71q4 10 12 11q6 0 6 -21q0 -80 -55.5 -140.5 t-140.5 -92t-163.5 -46t-144.5 -14.5q-242 0 -383 125t-170 350h-219q-25 0 -24 23z" />
<glyph unicode="&#x2122;" horiz-adv-x="1343" d="M55 1255q16 27 246.5 44.5t343.5 17.5q45 -1 45 -17q0 -20 -70.5 -30t-147.5 -20.5t-89 -32.5q-37 -70 -80 -217.5t-79 -244t-79 -96.5q-37 0 -36 27q0 20 36.5 112.5t86 207t55.5 129.5q25 74 24 86q0 18 -57 18q-25 0 -74 -5t-74 -5q-43 0 -51 26zM520 686 q0 8 38 103.5t81 203t51 131.5q4 10 6 59.5t13.5 81t40.5 31.5q20 0 34.5 -115.5t45 -230t94.5 -114.5q45 0 127 110.5t148.5 221t74.5 110.5q24 0 24 -55q0 -20 -12 -73.5t-14 -72t-6 -103.5t-10.5 -159t-12.5 -84q-20 -35 -72 -35q-23 0 -22 19q0 12 2 16q16 61 35.5 177 t30.5 161q-213 -276 -314 -276q-106 0 -182 276q-18 -41 -46 -149.5t-57.5 -178t-74.5 -69.5q-23 0 -23 14z" />
<glyph unicode="&#xe000;" horiz-adv-x="785" d="M0 785h785v-785h-785v785z" />
<glyph unicode="&#xfb01;" horiz-adv-x="823" d="M-369 -260q0 57 17.5 106.5t32.5 49.5q8 0 10 -13q-4 -41 -4 -57q0 -94 36.5 -151.5t90.5 -57.5q49 0 100 52t94 159q57 143 151.5 448.5t121.5 409.5h-134q-49 0 -49 19q0 12 26 29.5t42 17.5h131q49 176 121 372q43 119 121.5 174.5t203.5 55.5q106 0 159.5 -72 t53.5 -154q0 -70 -34.5 -101.5t-73.5 -31.5t-39 41q0 31 31.5 87.5t31.5 60.5q0 35 -50 81t-101 46q-47 0 -84 -16.5t-62.5 -52.5t-38 -59.5t-28.5 -66.5q-43 -109 -119 -366q14 0 50 -2.5t57 -2.5q27 0 70.5 9.5t47.5 9.5q8 0 9 -4q0 -66 -250 -66q-8 -20 -95.5 -319 t-121.5 -408q-68 -213 -167.5 -302t-199.5 -89q-158 0 -158 164zM506 25q0 18 8 43q23 63 46.5 130.5t35.5 104.5t25.5 76t19.5 58.5t11 39t7.5 29.5t2.5 20q0 8 -3.5 15.5t-3.5 11.5q0 8 7 27q45 129 79.5 172t102.5 43q28 -1 30 -19q-4 -6 -27.5 -51t-39.5 -78t-45 -96.5 t-51.5 -120.5t-47 -137t-42.5 -160q-2 -6 -3 -16q0 -25 21 -25q12 0 66.5 31t70.5 31q14 0 17 -9q0 -25 -104.5 -91t-143.5 -66t-39 37z" />
<glyph unicode="&#xfb02;" horiz-adv-x="872" d="M-369 -260q0 57 17.5 106.5t32.5 49.5q8 0 10 -13q-4 -41 -4 -57q0 -94 36.5 -151.5t90.5 -57.5q49 0 100 52t94 159q57 143 151.5 448.5t121.5 409.5h-134q-49 0 -49 19q0 12 26 29.5t42 17.5h131q96 342 135 426q49 106 102.5 141t170.5 35q194 0 323 -49 q29 -12 29 -27q0 -10 -15 -25q-111 -233 -222 -555.5t-167 -564.5q-2 -6 -2 -16q0 -25 21 -25q12 0 66.5 31t68.5 31q12 0 18 -9q0 -25 -102 -91t-145 -66q-39 0 -39 37q0 20 8 43q205 571 371 1167q-25 31 -90.5 53.5t-151.5 22.5q-96 0 -141 -115q-94 -242 -146 -446 q14 0 50 -2.5t57 -2.5q27 0 70.5 9.5t47.5 9.5q8 0 9 -4q0 -66 -250 -66q-8 -20 -95.5 -319t-121.5 -408q-68 -213 -167.5 -302t-199.5 -89q-158 0 -158 164z" />
<glyph unicode="&#xfb03;" horiz-adv-x="1204" d="M897 25q0 18 8 43q23 63 46.5 130.5t35.5 104.5t25.5 76t19.5 58.5t11 39t7.5 29.5t2.5 20q0 8 -3.5 15.5t-3.5 11.5q0 8 7 27q45 129 79.5 172t102.5 43q27 -1 31 -19q-4 -6 -28 -51t-40 -78t-45 -96.5t-51.5 -120.5t-47 -137t-42.5 -160q-2 -6 -2 -16q0 -25 20 -25 q12 0 66.5 31t70.5 31q14 0 17 -9q0 -25 -104.5 -91t-143.5 -66t-39 37zM1196 987q0 43 63.5 94.5t110.5 51.5q9 -1 12 -7q0 -27 -39 -67.5t-49 -63.5q-27 -68 -57 -75q-41 0 -41 67zM61 -260q0 57 17.5 106.5t32.5 49.5q8 0 10 -13q-4 -41 -4 -57q0 -94 36.5 -151.5 t90.5 -57.5q49 0 100 52t94 159q57 143 154.5 458.5t124.5 418.5q-49 -8 -137 -9q-47 0 -48 19q0 14 27 33.5t43 19.5h131q94 334 129 410q18 41 40 71.5t47.5 49t48 29.5t54 16.5t53 7.5t59 3t57.5 3q32 -6 32 -45q0 -31 -13 -58.5t-28 -27.5q-2 0 -12 21.5t-33.5 42 t-58.5 20.5q-98 0 -143 -115q-90 -231 -140 -428h201q57 0 57 -12q0 -20 -94 -31.5t-180 -11.5q-8 -20 -50 -163.5t-94.5 -321t-78.5 -261.5q-68 -213 -167.5 -302t-199.5 -89q-158 0 -158 164zM-369 -260q0 57 17.5 106.5t32.5 49.5q8 0 10 -13q-4 -41 -4 -57 q0 -94 36.5 -151.5t90.5 -57.5q49 0 100 52t94 159q57 143 154.5 458.5t124.5 418.5q-49 -8 -137 -9q-47 0 -48 19q0 14 27 33.5t43 19.5h131q94 334 129 410q18 41 40 71.5t47.5 49t48 29.5t54 16.5t53 7.5t59 3t57.5 3q32 -6 32 -45q0 -31 -13 -58.5t-28 -27.5 q-2 0 -12 21.5t-33.5 42t-58.5 20.5q-98 0 -143 -115q-90 -231 -140 -428h201q57 0 57 -12q0 -20 -94 -31.5t-180 -11.5q-8 -20 -50 -163.5t-94.5 -321t-78.5 -261.5q-68 -213 -167.5 -302t-199.5 -89q-158 0 -158 164z" />
<glyph unicode="&#xfb04;" horiz-adv-x="1226" d="M895 25q0 20 8 43q53 145 99 288.5t105.5 341t88.5 291.5q6 18 6 37q0 8 -3 15.5t-3 13.5t6 24q41 129 76 172t102 43q29 0 31 -18q-113 -233 -229.5 -564t-171.5 -579q-2 -6 -3 -16q0 -25 21 -25q12 0 66.5 31t68.5 31q12 0 19 -9q0 -25 -102.5 -91t-145.5 -66 q-39 0 -39 37zM61 -260q0 57 17.5 106.5t32.5 49.5q8 0 10 -13q-4 -41 -4 -57q0 -94 36.5 -151.5t90.5 -57.5q49 0 100 52t94 159q57 143 154.5 458.5t124.5 418.5q-49 -8 -137 -9q-47 0 -48 19q0 14 27 33.5t43 19.5h131q94 334 129 410q18 41 40 71.5t47.5 49t48 29.5 t54 16.5t53 7.5t59 3t57.5 3q32 -6 32 -45q0 -31 -13 -58.5t-28 -27.5q-2 0 -12 21.5t-33.5 42t-58.5 20.5q-98 0 -143 -115q-90 -231 -140 -428h201q57 0 57 -12q0 -20 -94 -31.5t-180 -11.5q-8 -20 -50 -163.5t-94.5 -321t-78.5 -261.5q-68 -213 -167.5 -302t-199.5 -89 q-158 0 -158 164zM-369 -260q0 57 17.5 106.5t32.5 49.5q8 0 10 -13q-4 -41 -4 -57q0 -94 36.5 -151.5t90.5 -57.5q49 0 100 52t94 159q57 143 154.5 458.5t124.5 418.5q-49 -8 -137 -9q-47 0 -48 19q0 14 27 33.5t43 19.5h131q94 334 129 410q18 41 40 71.5t47.5 49 t48 29.5t54 16.5t53 7.5t59 3t57.5 3q32 -6 32 -45q0 -31 -13 -58.5t-28 -27.5q-2 0 -12 21.5t-33.5 42t-58.5 20.5q-98 0 -143 -115q-90 -231 -140 -428h201q57 0 57 -12q0 -20 -94 -31.5t-180 -11.5q-8 -20 -50 -163.5t-94.5 -321t-78.5 -261.5q-68 -213 -167.5 -302 t-199.5 -89q-158 0 -158 164z" />
</font>
</defs>
</svg>
